<svg viewBox="0 0 94 84" fill="current" xmlns="http://www.w3.org/2000/svg">
<path d="M7.33341 0.666992C3.65008 0.666992 0.666748 3.65033 0.666748 7.33366V60.667C0.666748 64.3503 3.65008 67.3336 7.33341 67.3336H41.435C40.945 65.187 40.6667 62.9603 40.6667 60.667C40.6667 59.5403 40.7387 58.4303 40.8621 57.3337H10.6667V34.0003L18.297 26.3701C21.447 23.2201 26.5532 23.2201 29.7032 26.3701L46.4024 43.0693C51.8558 35.566 60.6801 30.667 70.6667 30.667C76.8367 30.667 82.5667 32.5322 87.3334 35.7256V7.33366C87.3334 3.65033 84.3501 0.666992 80.6667 0.666992H7.33341ZM70.6667 10.667C74.3501 10.667 77.3334 13.6503 77.3334 17.3337C77.3334 21.017 74.3501 24.0003 70.6667 24.0003C66.9834 24.0003 64.0001 21.017 64.0001 17.3337C64.0001 13.6503 66.9834 10.667 70.6667 10.667ZM70.6667 37.3337C57.7801 37.3337 47.3334 47.7803 47.3334 60.667C47.3334 73.5536 57.7801 84.0003 70.6667 84.0003C83.5534 84.0003 94.0001 73.5536 94.0001 60.667C94.0001 47.7803 83.5534 37.3337 70.6667 37.3337ZM70.6667 47.3337C72.5067 47.3337 74.0001 48.8237 74.0001 50.667V57.3337H80.6667C82.5067 57.3337 84.0001 58.8237 84.0001 60.667C84.0001 62.5103 82.5067 64.0003 80.6667 64.0003H74.0001V70.667C74.0001 72.5103 72.5067 74.0003 70.6667 74.0003C68.8267 74.0003 67.3334 72.5103 67.3334 70.667V64.0003H60.6667C58.8267 64.0003 57.3334 62.5103 57.3334 60.667C57.3334 58.8237 58.8267 57.3337 60.6667 57.3337H67.3334V50.667C67.3334 48.8237 68.8267 47.3337 70.6667 47.3337Z" fill="current"/>
</svg>
