<svg viewBox="0 0 76 93" fill="black" xmlns="http://www.w3.org/2000/svg">
<path d="M73.2167 31.6165C72.8067 31.8732 63.0467 37.2899 63.0467 49.2999C63.5067 62.9965 75.3634 67.7999 75.5667 67.7999C75.3634 68.0565 73.7767 74.3432 69.0767 80.9332C65.3467 86.6098 61.2067 92.3332 54.9201 92.3332C48.9401 92.3332 46.7934 88.5499 39.8934 88.5499C32.4834 88.5499 30.3867 92.3332 24.7134 92.3332C18.4267 92.3332 13.9801 86.3032 10.0467 80.6798C4.93673 73.3199 0.593401 61.7699 0.440068 50.6799C0.336734 44.8032 1.4634 39.0265 4.3234 34.1199C8.36007 27.2699 15.5667 22.6199 23.4367 22.4665C29.4667 22.2632 34.8334 26.6065 38.5134 26.6065C42.0401 26.6065 48.6334 22.4665 56.0934 22.4665C59.3134 22.4699 67.9001 23.4399 73.2167 31.6165ZM38.0034 21.2932C36.9301 15.9265 39.8934 10.5599 42.6534 7.13652C46.1801 2.99652 51.7501 0.186523 56.5534 0.186523C56.8601 5.55319 54.9167 10.8165 51.4434 14.6499C48.3267 18.7899 42.9601 21.9065 38.0034 21.2932Z" fill="black"/>
</svg>
