<svg viewBox="0 0 66 92" fill="current" xmlns="http://www.w3.org/2000/svg">
<path d="M2 0C0.898438 0 0 0.898438 0 2C0 26.5547 9.23438 37.8594 19.4375 45.3125C21.9609 43.7109 24.5 42.2422 27 40.8125C27.7109 40.4062 28.4219 39.9688 29.125 39.5625C18.6328 32.7656 10 23.6719 10 2C10 0.898438 9.10156 0 8 0H2ZM58 0C56.8906 0 56 0.898438 56 2C56 2.69531 55.9531 3.32813 55.9375 4H16C15.9375 4 15.875 4 15.8125 4C15.75 4 15.6875 4 15.625 4C14.5234 4.10156 13.7109 5.08594 13.8125 6.1875C13.9141 7.28906 14.8984 8.10156 16 8H55.75C55.6328 9.39063 55.5078 10.7266 55.3125 12H17.1875C17.125 12 17.0625 12 17 12C16.9375 12 16.875 12 16.8125 12C15.7109 12.1016 14.8984 13.0859 15 14.1875C15.1016 15.2891 16.0859 16.1016 17.1875 16H54.5C54.1641 17.4141 53.7578 18.7344 53.3125 20H20C19.9375 20 19.875 20 19.8125 20C19.75 20 19.6875 20 19.625 20C18.5234 20.1016 17.7109 21.0859 17.8125 22.1875C17.9141 23.2891 18.8984 24.1016 20 24H51.625C50.9219 25.4297 50.1562 26.7656 49.3125 28C49.2109 27.9922 49.1016 27.9922 49 28H24.8125C24.75 28 24.6875 28 24.625 28C24.5625 28 24.5 28 24.4375 28C23.3359 28.1016 22.5234 29.0859 22.625 30.1875C22.7266 31.2891 23.7109 32.1016 24.8125 32H46.125C44.7891 33.4375 43.3828 34.7812 41.875 36H34C33.9375 36 33.875 36 33.8125 36C33.75 36 33.6875 36 33.625 36C32.5234 36.1016 31.7109 37.0859 31.8125 38.1875C31.9141 39.2891 32.8984 40.1016 34 40H36.125C33.8125 41.4688 31.4297 42.8594 29 44.25C14.7422 52.3984 0 60.8438 0 90C0 91.1094 0.898438 92 2 92H8C9.10156 92 10 91.1094 10 90C10 67.3828 21.6562 60.5547 35.125 52.625C49.6094 44.0938 66 34.4141 66 2C66 0.898438 65.1094 0 64 0H58ZM46.5625 50.1875C43.3984 52.3672 40.1719 54.2656 37.125 56.0625C37 56.1328 36.875 56.1797 36.75 56.25L38.6875 57.4375C39.8984 58.2578 41.0156 59.1328 42.125 60H29C28.9375 60 28.875 60 28.8125 60C28.75 60 28.6875 60 28.625 60C27.5234 60.1016 26.7109 61.0859 26.8125 62.1875C26.9141 63.2891 27.8984 64.1016 29 64H46.625C47.8438 65.2578 48.9922 66.5625 50 68H21.1875C21.125 68 21.0625 68 21 68C20.9375 68 20.875 68 20.8125 68C19.7109 68.1016 18.8984 69.0859 19 70.1875C19.1016 71.2891 20.0859 72.1016 21.1875 72H52.375C52.9922 73.25 53.5312 74.5938 54 76H17.1875C17.125 76 17.0625 76 17 76C16.9375 76 16.875 76 16.8125 76C15.7109 76.1016 14.8984 77.0859 15 78.1875C15.1016 79.2891 16.0859 80.1016 17.1875 80H55.0625C55.3281 81.2734 55.5312 82.5938 55.6875 84H16C15.9375 84 15.875 84 15.8125 84C15.75 84 15.6875 84 15.625 84C14.5234 84.1016 13.7109 85.0859 13.8125 86.1875C13.9141 87.2891 14.8984 88.1016 16 88H55.9375C55.9609 88.6641 56 89.3125 56 90C56 91.1094 56.8906 92 58 92H64C65.1094 92 66 91.1094 66 90C66 66.875 56.4922 57.0938 47.0625 50.5L46.5625 50.1875Z" fill="current"/>
</svg>
