<svg viewBox="0 0 88 67" fill="current" xmlns="http://www.w3.org/2000/svg">
<path d="M34.7878 0.333008C32.2612 0.333008 29.9543 1.7579 28.8243 4.0179L27.5092 6.64811C26.3792 8.90478 24.069 10.333 21.5457 10.333H7.33341C3.65008 10.333 0.666748 13.3163 0.666748 16.9997V60.333C0.666748 64.0163 3.65008 66.9997 7.33341 66.9997H80.6667C84.3501 66.9997 87.3334 64.0163 87.3334 60.333V16.9997C87.3334 13.3163 84.3501 10.333 80.6667 10.333H66.4545C63.9278 10.333 61.621 8.90811 60.491 6.64811L59.1759 4.0179C58.0459 1.76124 55.7357 0.333008 53.2123 0.333008H34.7878ZM14.0001 3.66634C12.1601 3.66634 10.6667 5.15967 10.6667 6.99967H20.6667C20.6667 5.15967 19.1734 3.66634 17.3334 3.66634H14.0001ZM44.0001 13.6663C56.8667 13.6663 67.3334 24.133 67.3334 36.9997C67.3334 49.8663 56.8667 60.333 44.0001 60.333C31.1334 60.333 20.6667 49.8663 20.6667 36.9997C20.6667 24.133 31.1334 13.6663 44.0001 13.6663ZM74.0001 16.9997C75.8401 16.9997 77.3334 18.493 77.3334 20.333C77.3334 22.173 75.8401 23.6663 74.0001 23.6663C72.1601 23.6663 70.6667 22.173 70.6667 20.333C70.6667 18.493 72.1601 16.9997 74.0001 16.9997ZM44.0001 20.333C39.5798 20.333 35.3406 22.089 32.215 25.2146C29.0894 28.3402 27.3334 32.5794 27.3334 36.9997C27.3334 41.4199 29.0894 45.6592 32.215 48.7848C35.3406 51.9104 39.5798 53.6663 44.0001 53.6663C48.4204 53.6663 52.6596 51.9104 55.7852 48.7848C58.9108 45.6592 60.6667 41.4199 60.6667 36.9997C60.6667 32.5794 58.9108 28.3402 55.7852 25.2146C52.6596 22.089 48.4204 20.333 44.0001 20.333Z" fill="current"/>
</svg>
