<svg viewBox="0 0 74 74" xmlns="http://www.w3.org/2000/svg" fill="current">
<path d="M23.3333 0.000333358C22.8916 -0.00591347 22.4531 0.0756909 22.0432 0.240403C21.6333 0.405116 21.2602 0.649651 20.9457 0.9598C20.6311 1.26995 20.3813 1.63952 20.2108 2.04705C20.0403 2.45457 19.9525 2.89192 19.9525 3.33367C19.9525 3.77542 20.0403 4.21276 20.2108 4.62029C20.3813 5.02781 20.6311 5.39739 20.9457 5.70753C21.2602 6.01768 21.6333 6.26222 22.0432 6.42693C22.4531 6.59164 22.8916 6.67325 23.3333 6.667V26.667V30.0003V33.3337L1.50391 62.4482V62.4548C0.53251 63.6438 0.00129518 65.1316 0 66.667C0 68.4351 0.702379 70.1308 1.95262 71.381C3.20286 72.6313 4.89856 73.3337 6.66667 73.3337H36.6667H66.6667C68.4348 73.3337 70.1305 72.6313 71.3807 71.381C72.631 70.1308 73.3333 68.4351 73.3333 66.667C73.332 65.1316 72.8008 63.6438 71.8294 62.4548V62.4482L50 33.3337V30.0003V26.667V6.667C50.4417 6.67325 50.8802 6.59164 51.2901 6.42693C51.7 6.26222 52.0731 6.01768 52.3877 5.70753C52.7022 5.39739 52.952 5.02781 53.1225 4.62029C53.293 4.21276 53.3808 3.77542 53.3808 3.33367C53.3808 2.89192 53.293 2.45457 53.1225 2.04705C52.952 1.63952 52.7022 1.26995 52.3877 0.9598C52.0731 0.649651 51.7 0.405116 51.2901 0.240403C50.8802 0.0756909 50.4417 -0.00591347 50 0.000333358H23.3333ZM30 6.667H43.3333V26.667H30V6.667ZM33.3333 33.3337C35.1733 33.3337 36.6667 34.827 36.6667 36.667C36.6667 38.507 35.1733 40.0003 33.3333 40.0003C31.4933 40.0003 30 38.507 30 36.667C30 34.827 31.4933 33.3337 33.3333 33.3337ZM45 53.3337C47.76 53.3337 50 55.5737 50 58.3337C50 61.0937 47.76 63.3337 45 63.3337C42.24 63.3337 40 61.0937 40 58.3337C40 55.5737 42.24 53.3337 45 53.3337Z" fill="current"/>
</svg>
