<svg viewBox="0 0 55 55" fill="current" xmlns="http://www.w3.org/2000/svg">
<path d="M6.02247 0.00260858C4.82937 0.00408596 3.66379 0.361198 2.67464 1.02833C1.68548 1.69546 0.917651 2.64231 0.469236 3.74794C0.0208215 4.85357 -0.0878215 6.06778 0.157186 7.23545C0.402194 8.40312 0.989729 9.47125 1.84474 10.3034L18.6025 27.0612L1.84474 43.819C1.2689 44.3719 0.809162 45.0341 0.492454 45.7669C0.175746 46.4996 0.00843119 47.2882 0.000310513 48.0865C-0.00781016 48.8847 0.143426 49.6766 0.445161 50.4156C0.746896 51.1547 1.19306 51.8261 1.75754 52.3906C2.32201 52.9551 2.99344 53.4012 3.7325 53.703C4.47156 54.0047 5.2634 54.1559 6.06164 54.1478C6.85989 54.1397 7.64849 53.9724 8.38126 53.6557C9.11403 53.339 9.77624 52.8792 10.3291 52.3034L27.0869 35.5456L43.8447 52.3034C44.3976 52.8792 45.0598 53.339 45.7926 53.6557C46.5254 53.9724 47.314 54.1397 48.1122 54.1479C48.9105 54.156 49.7023 54.0047 50.4414 53.703C51.1804 53.4013 51.8519 52.9551 52.4163 52.3906C52.9808 51.8262 53.427 51.1547 53.7287 50.4157C54.0305 49.6766 54.1817 48.8847 54.1736 48.0865C54.1654 47.2882 53.9981 46.4996 53.6814 45.7669C53.3647 45.0341 52.905 44.3719 52.3291 43.819L35.5713 27.0612L52.3291 10.3034C53.1961 9.46061 53.7883 8.37557 54.0281 7.19045C54.2678 6.00533 54.144 4.77543 53.6727 3.66191C53.2015 2.5484 52.4048 1.60322 51.3872 0.950249C50.3695 0.297276 49.1783 -0.0330337 47.9697 0.00260858C46.4109 0.0490553 44.9315 0.70053 43.8447 1.81901L27.0869 18.5768L10.3291 1.81901C9.76928 1.24354 9.09967 0.786262 8.35991 0.474258C7.62016 0.162255 6.82533 0.00187164 6.02247 0.00260858Z" fill="current"/>
</svg>
