<svg viewBox="0 0 100 72" fill="current" xmlns="http://www.w3.org/2000/svg">
<path d="M50.321 0.00408223C49.6911 0.0119894 49.0646 0.0308697 48.4421 0.0618947C40.8065 0.439895 32.6093 2.2841 25.3601 5.2533C19.5457 7.6353 14.1496 10.8748 8.86324 15.1564C8.68284 15.3024 8.43279 15.4963 8.13199 15.7291C3.51559 19.3091 0.371225 22.2628 0.0304252 25.0424C-0.0935748 26.0516 0.15945 26.9898 0.77105 27.7658C3.70625 31.437 6.62426 34.7598 9.75386 37.6822C8.69466 39.1242 7.53741 40.6699 6.40621 42.1799C4.19421 45.1315 1.90679 48.1836 0.348394 50.476C-0.272406 51.3896 -0.0351185 52.6333 0.878082 53.2541C1.22288 53.4881 1.61394 53.6002 2.00074 53.6002C2.64074 53.6002 3.26979 53.2932 3.65699 52.7244C5.16339 50.508 7.42259 47.4939 9.60699 44.5783C10.6734 43.1551 11.7648 41.6973 12.7796 40.3197C16.7392 43.5297 21.1146 46.1319 26.3062 48.0299C24.8202 50.7807 23.7654 52.5143 22.7414 54.1963C21.3334 56.5091 20.0041 58.6927 17.8109 63.1111C17.3197 64.1007 17.7233 65.3012 18.7125 65.7924C18.9981 65.934 19.3023 66.001 19.6007 66.001C20.3363 66.001 21.0437 65.5936 21.3929 64.89C23.5097 60.626 24.7962 58.5128 26.1578 56.276C27.2898 54.4164 28.458 52.497 30.1828 49.265C35.7428 50.8234 41.5722 51.6029 47.5242 51.6025C47.5702 51.6025 47.6165 51.5994 47.6625 51.5994C48.1553 55.8426 48.1469 66.6646 47.9789 69.8971C47.9213 70.9999 48.769 71.9402 49.8718 71.9978C49.907 71.9998 49.9421 72.001 49.9773 72.001C51.0341 72.001 51.9178 71.1725 51.9734 70.1049C52.147 66.7705 52.1562 56.2265 51.6711 51.4713C57.0667 51.1521 62.5248 50.2128 67.932 48.6736C69.5952 51.7788 70.7381 53.6583 71.8453 55.4767C73.2069 57.7135 74.4937 59.8264 76.6101 64.09C76.9593 64.7936 77.6675 65.2017 78.4031 65.2017C78.7019 65.2017 79.005 65.134 79.2906 64.9924C80.2802 64.5012 80.6833 63.3015 80.1921 62.3119C77.9989 57.8939 76.6697 55.7091 75.2617 53.3963C74.2677 51.7631 73.243 50.0794 71.8242 47.465C76.5774 45.8482 81.2684 43.7664 85.8148 41.2244C86.1688 41.0264 86.5203 40.8207 86.8703 40.6111C88.1147 42.2111 89.2725 43.6316 90.3953 45.0088C92.3937 47.4596 94.2805 49.7746 96.3617 52.7478C96.7509 53.3034 97.3715 53.601 98.0023 53.601C98.3983 53.601 98.7984 53.4836 99.1476 53.2392C100.052 52.6056 100.272 51.3589 99.639 50.4541C97.4754 47.3601 95.5432 44.9898 93.4976 42.4806C92.4464 41.191 91.3605 39.8557 90.2125 38.3861C93.6277 35.8777 96.7821 32.8113 99.4945 29.3385C100.655 27.8521 99.9596 25.9543 96.6304 21.5283C94.7912 19.0839 92.687 16.6333 92.0742 16.0049C88.783 12.6297 84.4986 9.60948 79.3414 7.02908C69.999 2.35433 59.77 -0.114525 50.321 0.00408223Z" fill="current"/>
</svg>
