<svg viewBox="0 0 80 76" fill="current" xmlns="http://www.w3.org/2000/svg">
<path d="M11.8751 0.5C11.4803 0.5 11.0919 0.521834 10.7073 0.561035C9.94067 0.639164 9.19631 0.794436 8.48153 1.01676C4.89012 2.13384 2.05059 4.97337 0.933512 8.56478C0.711184 9.27956 0.555912 10.0239 0.477783 10.7905V10.7946C0.438851 11.1779 0.416748 11.5649 0.416748 11.9583V16.125V64.0417C0.416748 70.3329 5.58388 75.5 11.8751 75.5H68.1251C74.4163 75.5 79.5834 70.3329 79.5834 64.0417V16.125V11.9583C79.5834 11.5638 79.562 11.1753 79.5224 10.7905C79.4442 10.0239 79.289 9.27956 79.0667 8.56478C77.9496 4.97337 75.11 2.13384 71.5186 1.01676C70.8038 0.794436 70.0595 0.639164 69.2929 0.561035H69.2888C68.9054 0.521654 68.5183 0.5 68.1251 0.5H11.8751ZM11.8751 6.75C13.6001 6.75 15.0001 8.15 15.0001 9.875C15.0001 11.6 13.6001 13 11.8751 13C10.1501 13 8.75008 11.6 8.75008 9.875C8.75008 8.15 10.1501 6.75 11.8751 6.75ZM22.2917 6.75C24.0167 6.75 25.4167 8.15 25.4167 9.875C25.4167 11.6 24.0167 13 22.2917 13C20.5667 13 19.1667 11.6 19.1667 9.875C19.1667 8.15 20.5667 6.75 22.2917 6.75ZM6.66675 19.25H73.3334V64.0417C73.3334 66.9546 71.038 69.25 68.1251 69.25H11.8751C8.96211 69.25 6.66675 66.9546 6.66675 64.0417V19.25ZM23.3334 31.75C18.1647 31.75 13.9584 35.9562 13.9584 41.125V47.375C13.9584 52.5437 18.1647 56.75 23.3334 56.75C28.5022 56.75 32.7084 52.5437 32.7084 47.375V41.125C32.7084 35.9562 28.5022 31.75 23.3334 31.75ZM45.5136 31.7541C45.3095 31.7712 45.1057 31.8135 44.9073 31.8802L38.6573 33.9635C37.2927 34.4198 36.5552 35.8949 37.0094 37.2594C37.4656 38.6219 38.9386 39.3574 40.3053 38.9074L43.1251 37.9674V54.1458C43.1251 55.5833 44.2917 56.75 45.7292 56.75C47.1667 56.75 48.3334 55.5833 48.3334 54.1458V34.3542C48.3334 33.5167 47.9302 32.7299 47.2511 32.2383C46.7417 31.8711 46.1258 31.7026 45.5136 31.7541ZM62.1803 31.7541C61.9762 31.7712 61.7724 31.8135 61.574 31.8802L55.324 33.9635C53.9594 34.4198 53.2219 35.8949 53.676 37.2594C54.1323 38.6219 55.6053 39.3574 56.9719 38.9074L59.7917 37.9674V54.1458C59.7917 55.5833 60.9584 56.75 62.3959 56.75C63.8334 56.75 65.0001 55.5833 65.0001 54.1458V34.3542C65.0001 33.5167 64.5969 32.7299 63.9177 32.2383C63.4083 31.8711 62.7925 31.7026 62.1803 31.7541ZM23.3334 36.9583C25.6313 36.9583 27.5001 38.8271 27.5001 41.125V47.375C27.5001 49.6729 25.6313 51.5417 23.3334 51.5417C21.0355 51.5417 19.1667 49.6729 19.1667 47.375V41.125C19.1667 38.8271 21.0355 36.9583 23.3334 36.9583Z" fill="current"/>
</svg>
