<svg viewBox="0 0 73 73" fill="current" xmlns="http://www.w3.org/2000/svg">
<path d="M35.9976 0.000643192C34.4073 0.0239487 32.8913 0.677634 31.7827 1.81807C30.6742 2.9585 30.0637 4.49238 30.0855 6.08267V30.0827H6.08546C5.29038 30.0714 4.50101 30.2183 3.7632 30.5148C3.02539 30.8113 2.35386 31.2514 1.78764 31.8097C1.22142 32.368 0.771808 33.0332 0.464922 33.7668C0.158036 34.5003 0 35.2875 0 36.0827C0 36.8778 0.158036 37.665 0.464922 38.3986C0.771808 39.1321 1.22142 39.7974 1.78764 40.3556C2.35386 40.9139 3.02539 41.3541 3.7632 41.6505C4.50101 41.947 5.29038 42.0939 6.08546 42.0827H30.0855V66.0827C30.0742 66.8777 30.2211 67.6671 30.5176 68.4049C30.8141 69.1427 31.2542 69.8143 31.8125 70.3805C32.3708 70.9467 33.036 71.3963 33.7695 71.7032C34.5031 72.0101 35.2903 72.1681 36.0855 72.1681C36.8806 72.1681 37.6678 72.0101 38.4014 71.7032C39.1349 71.3963 39.8001 70.9467 40.3584 70.3805C40.9167 69.8143 41.3569 69.1427 41.6533 68.4049C41.9498 67.6671 42.0967 66.8777 42.0855 66.0827V42.0827H66.0855C66.8805 42.0939 67.6699 41.947 68.4077 41.6505C69.1455 41.3541 69.817 40.9139 70.3833 40.3556C70.9495 39.7974 71.3991 39.1321 71.706 38.3986C72.0129 37.665 72.1709 36.8778 72.1709 36.0827C72.1709 35.2875 72.0129 34.5003 71.706 33.7668C71.3991 33.0332 70.9495 32.368 70.3833 31.8097C69.817 31.2514 69.1455 30.8113 68.4077 30.5148C67.6699 30.2183 66.8805 30.0714 66.0855 30.0827H42.0855V6.08267C42.0964 5.28044 41.9464 4.48415 41.6443 3.7409C41.3421 2.99765 40.894 2.32254 40.3264 1.75549C39.7588 1.18845 39.0833 0.740981 38.3398 0.439563C37.5962 0.138146 36.7998 -0.0111031 35.9976 0.000643192Z" fill="current"/>
</svg>
