<svg viewBox="0 0 81 82" fill="current" xmlns="http://www.w3.org/2000/svg">
<path d="M58.3377 0C56.6127 0 55.2127 1.39792 55.2127 3.125V4.5166C51.394 5.5541 48.4826 9.00833 48.4826 13.0208C48.4826 17.9021 52.4534 21.875 57.3367 21.875H59.9002C61.3356 21.875 62.5044 23.0437 62.5044 24.4792C62.5044 25.9146 61.3337 27.0833 59.8962 27.0833H56.3317C54.6234 27.0833 53.952 25.9169 53.8374 25.6836C53.0666 24.1398 51.1902 23.5213 49.6422 24.2879C48.0985 25.0608 47.4757 26.9372 48.2466 28.4831C49.3112 30.6081 51.6712 32.8457 55.2087 33.252V34.375C55.2087 36.1021 56.6087 37.5 58.3337 37.5C60.0587 37.5 61.4587 36.1021 61.4587 34.375V33.1746C65.5962 32.433 68.7503 28.8271 68.7503 24.4792C68.7503 19.5979 64.7795 15.625 59.8962 15.625H57.3327C55.8973 15.625 54.7285 14.4562 54.7285 13.0208C54.7285 11.6333 56.0383 10.4167 57.5321 10.4167H59.298C60.8772 10.4167 61.4257 11.0893 61.7882 11.8164C62.5612 13.3622 64.4376 13.9829 65.9834 13.2121C67.5271 12.4392 68.154 10.5628 67.3831 9.01693C66.1436 6.53984 64.0773 4.961 61.4627 4.40267V3.125C61.4627 1.39792 60.0627 0 58.3377 0ZM3.07649 2.03857C2.2484 2.05151 1.4593 2.3926 0.882522 2.98693C0.305741 3.58126 -0.0115573 4.38023 0.000321929 5.20833V73.9583C0.000321929 77.9478 3.3025 81.25 7.29199 81.25H46.4521C46.8662 81.2559 47.2774 81.1793 47.6617 81.0249C48.0459 80.8705 48.3957 80.6413 48.6906 80.3505C48.9855 80.0597 49.2197 79.7133 49.3795 79.3312C49.5393 78.9492 49.6217 78.5391 49.6217 78.125C49.6217 77.7109 49.5393 77.3008 49.3795 76.9188C49.2197 76.5367 48.9855 76.1903 48.6906 75.8995C48.3957 75.6087 48.0459 75.3795 47.6617 75.2251C47.2774 75.0706 46.8662 74.9941 46.4521 75H7.29199C6.67731 75 6.25032 74.573 6.25032 73.9583V5.20833C6.25632 4.79007 6.1783 4.37486 6.02087 3.98731C5.86344 3.59976 5.62982 3.24775 5.33384 2.95216C5.03787 2.65656 4.68556 2.42339 4.29781 2.26646C3.91006 2.10953 3.49475 2.03204 3.07649 2.03857ZM15.1574 2.85645C14.6676 2.86107 14.1857 2.98078 13.7506 3.20589C13.3156 3.43101 12.9395 3.75524 12.6528 4.15242C12.3661 4.54961 12.1768 5.00862 12.1001 5.49243C12.0235 5.97624 12.0616 6.4713 12.2114 6.93766L19.263 30.0781C19.384 30.4745 19.5825 30.8429 19.8472 31.1619C20.1118 31.4808 20.4373 31.7439 20.8046 31.9359C21.1719 32.1279 21.5737 32.2449 21.9867 32.2801C22.3996 32.3154 22.8154 32.2681 23.21 32.1411L31.6206 29.4352L37.7078 53.0843C37.8931 53.8022 38.3275 54.4308 38.9335 54.8579C39.5395 55.285 40.2776 55.4827 41.0159 55.4159L56.4823 54.0324L59.7578 62.5977C59.9113 62.9979 60.1454 63.3623 60.4457 63.6682C60.746 63.9741 61.1061 64.215 61.5034 64.3758L75.7205 70.1335C76.1018 70.292 76.5108 70.3733 76.9237 70.3728C77.3367 70.3724 77.7454 70.2901 78.1264 70.1307C78.5073 69.9713 78.8529 69.738 79.1431 69.4443C79.4334 69.1506 79.6626 68.8023 79.8174 68.4195C79.9722 68.0367 80.0497 67.627 80.0453 67.214C80.0408 66.8011 79.9546 66.3932 79.7916 66.0138C79.6286 65.6344 79.392 65.2911 79.0955 65.0036C78.7991 64.7162 78.4486 64.4904 78.0643 64.3392L65.1086 59.0942L61.4749 49.5931C61.2321 48.9572 60.7883 48.4181 60.2111 48.0574C59.6338 47.6968 58.9546 47.5345 58.2767 47.5952L43.0993 48.9543L36.8493 24.6663C36.7432 24.2537 36.5539 23.8671 36.2929 23.5303C36.032 23.1934 35.7049 22.9135 35.3318 22.7078C34.9587 22.502 34.5475 22.3746 34.1234 22.3336C33.6993 22.2926 33.2713 22.3387 32.8657 22.4691L24.3167 25.2197L18.1929 5.11475C18.0033 4.45825 17.6039 3.88196 17.0557 3.47409C16.5074 3.06623 15.8407 2.84928 15.1574 2.85645ZM63.7414 75C63.3273 74.9941 62.9161 75.0706 62.5319 75.2251C62.1476 75.3795 61.7978 75.6087 61.5029 75.8995C61.208 76.1903 60.9738 76.5367 60.814 76.9188C60.6542 77.3008 60.5719 77.7109 60.5719 78.125C60.5719 78.5391 60.6542 78.9492 60.814 79.3312C60.9738 79.7133 61.208 80.0597 61.5029 80.3505C61.7978 80.6413 62.1476 80.8705 62.5319 81.0249C62.9161 81.1793 63.3273 81.2559 63.7414 81.25H76.042C76.4561 81.2559 76.8672 81.1793 77.2515 81.0249C77.6358 80.8705 77.9855 80.6413 78.2804 80.3505C78.5753 80.0597 78.8095 79.7133 78.9693 79.3312C79.1292 78.9492 79.2115 78.5391 79.2115 78.125C79.2115 77.7109 79.1292 77.3008 78.9693 76.9188C78.8095 76.5367 78.5753 76.1903 78.2804 75.8995C77.9855 75.6087 77.6358 75.3795 77.2515 75.2251C76.8672 75.0706 76.4561 74.9941 76.042 75H63.7414Z" fill="current"/>
</svg>
