<svg width="78" height="78" viewBox="0 0 78 78" fill="current" xmlns="http://www.w3.org/2000/svg">
<path d="M39 0C37.344 0 36 1.344 36 3V3.51562C36 4.94962 34.9902 6.22903 33.5742 6.45703C32.8872 6.56803 32.2072 6.69661 31.5352 6.84961C30.1432 7.16761 28.7355 6.3795 28.1895 5.0625L27.9902 4.59375C27.3572 3.06375 25.6033 2.3347 24.0703 2.9707C22.5403 3.6037 21.8113 5.35763 22.4473 6.89062L22.6465 7.37109C23.1985 8.69109 22.7571 10.2538 21.5391 11.0098C20.9511 11.3758 20.3774 11.7592 19.8164 12.1582C18.6524 12.9892 17.0423 12.8001 16.0312 11.7891L15.668 11.4258C14.495 10.2528 12.5958 10.2528 11.4258 11.4258C10.2558 12.5988 10.2558 14.498 11.4258 15.668L11.7891 16.0312C12.8001 17.0423 12.9892 18.6494 12.1582 19.8164C11.7592 20.3774 11.3758 20.9511 11.0098 21.5391C10.2538 22.7571 8.68823 23.2013 7.36523 22.6523L6.89062 22.4531C5.36063 21.8201 3.60084 22.5462 2.96484 24.0762C2.33184 25.6062 3.05789 27.3601 4.58789 27.9961L5.05664 28.1895C6.37364 28.7355 7.16761 30.1432 6.84961 31.5352C6.69661 32.2072 6.56217 32.8872 6.45117 33.5742C6.22617 34.9872 4.94962 36 3.51562 36H3C1.344 36 0 37.344 0 39C0 40.656 1.344 42 3 42H3.51562C4.94962 42 6.22903 43.0098 6.45703 44.4258C6.56803 45.1128 6.69661 45.7928 6.84961 46.4648C7.16761 47.8568 6.3795 49.2645 5.0625 49.8105L4.59375 50.0098C3.06375 50.6428 2.3347 52.3967 2.9707 53.9297C3.6037 55.4597 5.35763 56.1887 6.89062 55.5527L7.37109 55.3535C8.69409 54.8045 10.2566 55.2459 11.0156 56.4609C11.3816 57.0489 11.7621 57.6255 12.1641 58.1895C12.9951 59.3535 12.8059 60.9636 11.7949 61.9746L11.4258 62.3379C10.2528 63.5109 10.2528 65.4101 11.4258 66.5801C12.5988 67.7501 14.498 67.7531 15.668 66.5801L16.0371 66.2168C17.0481 65.2058 18.6524 65.0108 19.8164 65.8418C20.3804 66.2438 20.9569 66.6301 21.5449 66.9961C22.7599 67.7521 23.2072 69.3176 22.6582 70.6406L22.459 71.1152C21.826 72.6452 22.552 74.405 24.082 75.041C25.612 75.674 27.366 74.948 28.002 73.418L28.1953 72.9492C28.7413 71.6322 30.149 70.8383 31.541 71.1562C32.213 71.3092 32.8931 71.4437 33.5801 71.5547C34.9871 71.7737 36 73.0504 36 74.4844V75C36 76.656 37.344 78 39 78C40.656 78 42 76.656 42 75V74.4844C42 73.0504 43.0098 71.771 44.4258 71.543C45.1128 71.432 45.7928 71.3034 46.4648 71.1504C47.8568 70.8324 49.2645 71.6205 49.8105 72.9375L50.0098 73.4062C50.6428 74.9362 52.3967 75.6653 53.9297 75.0293C55.4597 74.3963 56.1887 72.6424 55.5527 71.1094L55.3535 70.6289C54.8045 69.3059 55.2459 67.7434 56.4609 66.9844C57.0489 66.6184 57.6255 66.2379 58.1895 65.8359C59.3535 65.0049 60.9636 65.1941 61.9746 66.2051L62.3379 66.5742C63.5109 67.7472 65.4101 67.7472 66.5801 66.5742C67.7501 65.4012 67.7531 63.502 66.5801 62.332L66.2168 61.9629C65.2058 60.9519 65.0108 59.3476 65.8418 58.1836C66.2438 57.6196 66.6301 57.0431 66.9961 56.4551C67.7521 55.2401 69.3176 54.7928 70.6406 55.3418L71.1152 55.541C72.6452 56.174 74.405 55.448 75.041 53.918C75.674 52.388 74.948 50.634 73.418 49.998L72.9492 49.8047C71.6322 49.2587 70.8383 47.851 71.1562 46.459C71.3092 45.787 71.4437 45.1069 71.5547 44.4199C71.7737 43.0129 73.0504 42 74.4844 42H75C76.656 42 78 40.656 78 39C78 37.344 76.656 36 75 36H74.4844C73.0504 36 71.771 34.9902 71.543 33.5742C71.432 32.8872 71.3034 32.2072 71.1504 31.5352C70.8324 30.1432 71.6205 28.7355 72.9375 28.1895L73.4062 27.9902C74.9362 27.3572 75.6653 25.6033 75.0293 24.0703C74.3963 22.5403 72.6424 21.8113 71.1094 22.4473L70.6289 22.6465C69.3059 23.1955 67.7434 22.7541 66.9844 21.5391C66.6184 20.9511 66.2379 20.3745 65.8359 19.8105C65.0049 18.6465 65.1941 17.0364 66.2051 16.0254L66.5742 15.6621C67.7472 14.4891 67.7472 12.5899 66.5742 11.4199C65.4012 10.2469 63.502 10.2469 62.332 11.4199L61.9688 11.7891C60.9577 12.8001 59.3476 12.9951 58.1836 12.1641C57.6196 11.7621 57.0431 11.3758 56.4551 11.0098C55.2401 10.2538 54.7987 8.68823 55.3477 7.36523L55.5469 6.89062C56.1799 5.36063 55.4538 3.60084 53.9238 2.96484C52.3938 2.33184 50.6399 3.05789 50.0039 4.58789L49.8047 5.05664C49.2587 6.37364 47.851 7.16761 46.459 6.84961C45.787 6.69661 45.1069 6.56217 44.4199 6.45117C43.0099 6.22617 42 4.94962 42 3.51562V3C42 1.344 40.656 0 39 0ZM39 15C51.2359 15 61.3158 24.1646 62.7949 36H50.5723C49.234 30.8334 44.5849 27 39 27C37.8914 27 36.8375 27.199 35.8184 27.4805L29.6895 16.875C32.553 15.6682 35.6976 15 39 15ZM24.5098 19.8984L30.5977 30.4453C28.381 32.6227 27 35.6476 27 39C27 42.351 28.3825 45.3717 30.5977 47.5488L24.5098 58.0957C18.743 53.7121 15 46.8019 15 39C15 31.1968 18.7414 24.2819 24.5098 19.8984ZM39 33C42.315 33 45 35.685 45 39C45 42.315 42.315 45 39 45C35.685 45 33 42.315 33 39C33 35.685 35.685 33 39 33ZM50.5723 42H62.7949C61.3158 53.8354 51.2359 63 39 63C35.6976 63 32.553 62.3318 29.6895 61.125L35.8125 50.5137C36.8338 50.7964 37.8888 51 39 51C44.5849 51 49.234 47.1666 50.5723 42Z" fill="current"/>
</svg>
