<svg viewBox="0 0 100 100" fill="none" xmlns="http://www.w3.org/2000/svg">
<path d="M90.8562 41.8393H87.4999V41.6663H49.9999V58.333H73.5478C70.1124 68.0351 60.8812 74.9997 49.9999 74.9997C36.1937 74.9997 24.9999 63.8059 24.9999 49.9997C24.9999 36.1934 36.1937 24.9997 49.9999 24.9997C56.3728 24.9997 62.1707 27.4038 66.5853 31.3309L78.3708 19.5455C70.9291 12.6101 60.9749 8.33301 49.9999 8.33301C26.9895 8.33301 8.33325 26.9893 8.33325 49.9997C8.33325 73.0101 26.9895 91.6663 49.9999 91.6663C73.0103 91.6663 91.6666 73.0101 91.6666 49.9997C91.6666 47.2059 91.3791 44.4788 90.8562 41.8393Z" fill="#FFC107"/>
<path d="M13.1375 30.6059L26.827 40.6455C30.5312 31.4747 39.502 24.9997 50 24.9997C56.3729 24.9997 62.1708 27.4038 66.5854 31.3309L78.3708 19.5455C70.9291 12.6101 60.9749 8.33301 50 8.33301C33.9958 8.33301 20.1166 17.3684 13.1375 30.6059Z" fill="#FF3D00"/>
<path d="M50 91.6671C60.7625 91.6671 70.5417 87.5484 77.9354 80.8505L65.0396 69.938C60.8562 73.1067 55.6562 75.0005 50 75.0005C39.1625 75.0005 29.9604 68.09 26.4937 58.4463L12.9062 68.915C19.8021 82.4088 33.8062 91.6671 50 91.6671Z" fill="#4CAF50"/>
<path d="M90.8562 41.8399H87.5V41.667H50V58.3337H73.5479C71.8979 62.9941 68.9 67.0128 65.0333 69.9399L65.0396 69.9357L77.9354 80.8482C77.0229 81.6774 91.6667 70.8337 91.6667 50.0003C91.6667 47.2066 91.3792 44.4795 90.8562 41.8399Z" fill="#1976D2"/>
</svg>
