<svg viewBox="0 0 80 80" fill="current" xmlns="http://www.w3.org/2000/svg">
<path d="M40 0C17.91 0 0 17.91 0 40C0 62.09 17.91 80 40 80C62.09 80 80 62.09 80 40C80 17.91 62.09 0 40 0ZM51.5885 21.0482C52.8878 21.0576 54.1184 21.8305 54.6484 23.1055L55.9245 26.1849L59.0039 24.9089C60.7072 24.2022 62.6527 25.0122 63.3594 26.7122C64.066 28.4156 63.2593 30.3644 61.556 31.0677L58.4766 32.3438L59.7526 35.4297C60.4593 37.133 59.6492 39.0785 57.9492 39.7852C56.2492 40.4918 54.3004 39.6818 53.5938 37.9818L52.3177 34.9023L49.2383 36.1784C47.5349 36.885 45.5895 36.075 44.8828 34.375C44.1761 32.6717 44.9862 30.7262 46.6862 30.0195L49.7656 28.737L48.4896 25.6576C47.7829 23.9542 48.593 22.0087 50.293 21.3021C50.7188 21.1254 51.1555 21.0451 51.5885 21.0482ZM25.2604 25.013C28.0498 25.5129 33.4495 29.8952 47.832 50.4102C48.8854 51.9135 48.5249 53.9954 47.0182 55.0521C45.5116 56.0954 43.433 55.7418 42.3763 54.2318C41.593 53.1151 40.7778 51.9864 39.9544 50.8464L29.2253 55.293C29.4486 56.6796 29.6755 58.0512 29.9089 59.3945C30.1855 60.9612 29.317 62.4701 27.9036 63.0534C27.6803 63.1467 27.4439 63.2151 27.2005 63.2617C25.3872 63.5784 23.6632 62.3667 23.3398 60.5534C17.5565 27.6501 20.7621 26.3216 23.1055 25.3516C23.6913 25.1091 24.3306 24.8464 25.2604 25.013ZM26.7513 34.1406C26.8713 37.6206 27.4298 42.8828 28.2031 48.4961L35.8724 45.319C32.4491 40.8023 29.128 36.684 26.7513 34.1406Z"/>
</svg>
