<svg viewBox="0 0 80 80" fill="current" xmlns="http://www.w3.org/2000/svg">
<path d="M23.0534 0.000201644C22.5768 0.0224988 22.1106 0.146827 21.6862 0.364785L15.1497 3.69812C14.6029 3.97763 14.1439 4.40278 13.8234 4.92664C13.5028 5.4505 13.3333 6.05273 13.3333 6.66687V46.6669H11.6667C5.22333 46.6669 0 54.1302 0 63.3335C0 72.5369 5.22333 80.0002 11.6667 80.0002H68.3333C72.0757 80.0002 75.1389 77.5905 77.0508 74.5315C78.8947 71.5812 79.903 67.8455 79.974 63.7762C79.9925 63.6294 80.0012 63.4815 80 63.3335V3.33353C80 2.76533 79.8547 2.20655 79.578 1.71027C79.3013 1.21398 78.9024 0.796659 78.419 0.497917C77.9357 0.199175 77.384 0.0289329 76.8164 0.00335354C76.2488 -0.0222258 75.684 0.0977065 75.1758 0.351764L69.974 2.95593L64.5117 0.332233C64.0453 0.107821 63.533 -0.00489433 63.0155 0.00301578C62.4979 0.0109259 61.9893 0.139244 61.5299 0.377806L56.6276 2.92989L51.3997 0.345254C50.9358 0.115816 50.4249 -0.00245657 49.9073 -0.000196515C49.3898 0.00206354 48.8799 0.124794 48.418 0.358275L43.3203 2.9364L38.125 0.351764C37.6248 0.100935 37.0696 -0.0199662 36.5104 0.000201644C36.0348 0.0184485 35.5686 0.138323 35.1432 0.351764L29.9805 2.94291L24.668 0.338743C24.1666 0.0924099 23.6114 -0.0240016 23.0534 0.000201644ZM23.2292 7.05749L28.5352 9.66166C28.9965 9.88794 29.5039 10.0045 30.0178 10.0022C30.5317 9.99999 31.038 9.87897 31.4974 9.64864L36.6406 7.05749L41.849 9.64864C42.3132 9.88014 42.8251 10.0001 43.3439 9.99897C43.8626 9.99784 44.374 9.87565 44.8372 9.64213L49.9414 7.05749L55.1888 9.65515C55.6593 9.88796 56.1782 10.0064 56.7031 10.0007C57.2281 9.99504 57.7442 9.86549 58.2096 9.6226L63.125 7.064L68.5547 9.66817C69.0131 9.88927 69.5161 10.0025 70.025 9.99909C70.534 9.9957 71.0354 9.87582 71.4909 9.64864L73.3333 8.72416V48.2294C71.8709 47.2618 70.186 46.6669 68.3333 46.6669H20V8.71114L23.2292 7.05749ZM30 20.0002C29.5583 19.994 29.1198 20.0756 28.7099 20.2403C28.3 20.405 27.9269 20.6495 27.6123 20.9597C27.2978 21.2698 27.048 21.6394 26.8775 22.0469C26.707 22.4544 26.6192 22.8918 26.6192 23.3335C26.6192 23.7753 26.707 24.2126 26.8775 24.6202C27.048 25.0277 27.2978 25.3973 27.6123 25.7074C27.9269 26.0176 28.3 26.2621 28.7099 26.4268C29.1198 26.5915 29.5583 26.6731 30 26.6669H43.3333C43.775 26.6731 44.2136 26.5915 44.6235 26.4268C45.0334 26.2621 45.4064 26.0176 45.721 25.7074C46.0356 25.3973 46.2854 25.0277 46.4559 24.6202C46.6263 24.2126 46.7141 23.7753 46.7141 23.3335C46.7141 22.8918 46.6263 22.4544 46.4559 22.0469C46.2854 21.6394 46.0356 21.2698 45.721 20.9597C45.4064 20.6495 45.0334 20.405 44.6235 20.2403C44.2136 20.0756 43.775 19.994 43.3333 20.0002H30ZM56.6667 20.0002C56.225 19.994 55.7864 20.0756 55.3765 20.2403C54.9666 20.405 54.5936 20.6495 54.279 20.9597C53.9644 21.2698 53.7146 21.6394 53.5441 22.0469C53.3737 22.4544 53.2859 22.8918 53.2859 23.3335C53.2859 23.7753 53.3737 24.2126 53.5441 24.6202C53.7146 25.0277 53.9644 25.3973 54.279 25.7074C54.5936 26.0176 54.9666 26.2621 55.3765 26.4268C55.7864 26.5915 56.225 26.6731 56.6667 26.6669H63.3333C63.775 26.6731 64.2136 26.5915 64.6235 26.4268C65.0334 26.2621 65.4064 26.0176 65.721 25.7074C66.0356 25.3973 66.2854 25.0277 66.4558 24.6202C66.6263 24.2126 66.7141 23.7753 66.7141 23.3335C66.7141 22.8918 66.6263 22.4544 66.4558 22.0469C66.2854 21.6394 66.0356 21.2698 65.721 20.9597C65.4064 20.6495 65.0334 20.405 64.6235 20.2403C64.2136 20.0756 63.775 19.994 63.3333 20.0002H56.6667ZM30 33.3335C29.5583 33.3273 29.1198 33.4089 28.7099 33.5736C28.3 33.7383 27.9269 33.9829 27.6123 34.293C27.2978 34.6031 27.048 34.9727 26.8775 35.3802C26.707 35.7878 26.6192 36.2251 26.6192 36.6669C26.6192 37.1086 26.707 37.546 26.8775 37.9535C27.048 38.361 27.2978 38.7306 27.6123 39.0407C27.9269 39.3509 28.3 39.5954 28.7099 39.7601C29.1198 39.9248 29.5583 40.0065 30 40.0002H36.6667C37.1084 40.0065 37.5469 39.9248 37.9568 39.7601C38.3667 39.5954 38.7398 39.3509 39.0543 39.0407C39.3689 38.7306 39.6187 38.361 39.7892 37.9535C39.9597 37.546 40.0475 37.1086 40.0475 36.6669C40.0475 36.2251 39.9597 35.7878 39.7892 35.3802C39.6187 34.9727 39.3689 34.6031 39.0543 34.293C38.7398 33.9829 38.3667 33.7383 37.9568 33.5736C37.5469 33.4089 37.1084 33.3273 36.6667 33.3335H30ZM50 33.3335C49.5583 33.3273 49.1198 33.4089 48.7099 33.5736C48.3 33.7383 47.9269 33.9829 47.6123 34.293C47.2978 34.6031 47.048 34.9727 46.8775 35.3802C46.707 35.7878 46.6192 36.2251 46.6192 36.6669C46.6192 37.1086 46.707 37.546 46.8775 37.9535C47.048 38.361 47.2978 38.7306 47.6123 39.0407C47.9269 39.3509 48.3 39.5954 48.7099 39.7601C49.1198 39.9248 49.5583 40.0065 50 40.0002H63.3333C63.775 40.0065 64.2136 39.9248 64.6235 39.7601C65.0334 39.5954 65.4064 39.3509 65.721 39.0407C66.0356 38.7306 66.2854 38.361 66.4558 37.9535C66.6263 37.546 66.7141 37.1086 66.7141 36.6669C66.7141 36.2251 66.6263 35.7878 66.4558 35.3802C66.2854 34.9727 66.0356 34.6031 65.721 34.293C65.4064 33.9829 65.0334 33.7383 64.6235 33.5736C64.2136 33.4089 63.775 33.3273 63.3333 33.3335H50ZM68.3333 53.3335C69.1933 53.3335 70.2956 53.9041 71.3997 55.6708C72.5039 57.4374 73.3333 60.2146 73.3333 63.3335C73.3333 66.4525 72.5039 69.2296 71.3997 70.9963C70.2956 72.763 69.1933 73.3335 68.3333 73.3335C67.4733 73.3335 66.3711 72.763 65.2669 70.9963C64.1628 69.2296 63.3333 66.4525 63.3333 63.3335C63.3333 60.2146 64.1628 57.4374 65.2669 55.6708C66.3711 53.9041 67.4733 53.3335 68.3333 53.3335Z" fill="current"/>
</svg>
