<svg viewBox="0 0 80 80" fill="current" xmlns="http://www.w3.org/2000/svg">
<path d="M6.66667 0C2.98333 0 0 2.98333 0 6.66667V56.6667C0 60.35 2.98333 63.3333 6.66667 63.3333H20V76.6667C20 77.5507 20.3512 78.3986 20.9763 79.0237C21.6014 79.6488 22.4493 80 23.3333 80C23.889 79.999 24.4355 79.8591 24.9233 79.593C25.4111 79.3269 25.8246 78.9432 26.1263 78.4766L37.5 63.3333H73.3333C77.0167 63.3333 80 60.35 80 56.6667V6.66667C80 2.98333 77.0167 0 73.3333 0H6.66667ZM20 10C21.3333 10 22.5431 10.7916 23.0664 12.0182L33.0664 35.3516C33.7931 37.0416 33.0051 39.0064 31.3151 39.7331C30.8884 39.9197 30.44 40 30 40C28.7067 40 27.4736 39.2451 26.9336 37.9818L26.3737 36.6667H13.6263L13.0664 37.9818C12.3431 39.6751 10.3716 40.4664 8.6849 39.7331C6.9949 39.0064 6.20693 37.0447 6.93359 35.3581L16.9336 12.0247C17.4569 10.7947 18.6667 10 20 10ZM60 20.0065C61.84 20.0065 63.3333 21.4965 63.3333 23.3398V26.6732H70C71.84 26.6732 73.3333 28.1632 73.3333 30.0065C73.3333 31.8498 71.84 33.3333 70 33.3333H69.6354C68.9388 36.7967 67.2524 40.8477 64.7591 44.401L68.6654 47.3307C70.1387 48.4341 70.4393 50.5287 69.3359 51.9987C68.6826 52.8754 67.6735 53.3268 66.6602 53.3268C65.9668 53.3268 65.268 53.1128 64.668 52.6628L60.2539 49.3555C57.3606 51.7555 53.91 53.3333 50 53.3333C48.16 53.3333 46.6667 51.8433 46.6667 50C46.6667 48.1567 48.16 46.6667 50 46.6667C51.6733 46.6667 53.2504 46.102 54.707 45.1953L51.3346 42.6693C49.8613 41.5659 49.5607 39.4713 50.6641 38.0013C51.7707 36.528 53.8587 36.2372 55.332 37.3372L59.4857 40.4492C61.049 38.1826 62.2023 35.6265 62.819 33.3398H50C48.16 33.3398 46.6667 31.8498 46.6667 30.0065C46.6667 28.1632 48.16 26.6732 50 26.6732H56.6667V23.3398C56.6667 21.4965 58.16 20.0065 60 20.0065ZM20 21.7969L16.4844 30H23.5156L20 21.7969Z" fill="current"/>
</svg>
