<svg viewBox="0 0 80 87" fill="current" xmlns="http://www.w3.org/2000/svg">
<path d="M37.6023 0.0116508C19.5356 -0.448349 3.3464 12.7639 0.4864 30.6106C-1.6536 43.9706 3.43604 56.2418 12.446 64.1718C15.2127 66.6051 16.6648 70.2052 16.6648 73.8919V86.6653H49.9981V81.47C49.9981 78.6 51.8321 76.055 54.5554 75.1484L65.4408 71.5221C68.1608 70.6121 69.9981 68.0639 69.9981 65.1939V52.4791L77.5567 49.8749C78.2584 49.6801 78.8769 49.2608 79.3178 48.6812C79.7587 48.1016 79.9976 47.3935 79.9981 46.6653C79.9958 45.8983 79.7291 45.1556 79.2429 44.5624L79.1518 44.4518C79.12 44.4141 79.0875 44.3772 79.0541 44.3411L69.8614 33.3255C68.5255 14.949 56.204 0.480232 37.6023 0.0116508ZM46.6648 13.332C48.5081 13.332 49.9981 14.822 49.9981 16.6653V17.2773C51.1581 17.6906 52.2065 18.3038 53.1231 19.0872L53.657 18.7812C55.2403 17.8578 57.2909 18.402 58.2143 19.9986C59.1343 21.5953 58.5836 23.6294 56.9903 24.5494L56.4825 24.8424C56.5925 25.4357 56.6648 26.042 56.6648 26.6653C56.6648 27.2886 56.5925 27.8949 56.4825 28.4882L56.9903 28.7812C58.587 29.7012 59.1376 31.7386 58.2143 33.332C57.5943 34.402 56.477 34.9986 55.3236 34.9986C54.757 34.9986 54.1803 34.8527 53.657 34.5494L53.1231 34.2434C52.2065 35.0268 51.1581 35.64 49.9981 36.0533V36.6653C49.9981 38.5086 48.5081 39.9986 46.6648 39.9986C44.8214 39.9986 43.3315 38.5086 43.3315 36.6653V36.0533C42.1715 35.64 41.1231 35.0268 40.2065 34.2434L39.6726 34.5494C39.1493 34.8527 38.5726 34.9986 38.0059 34.9986C36.8526 34.9986 35.732 34.402 35.1153 33.332C34.1953 31.7353 34.7459 29.7012 36.3393 28.7812L36.8471 28.4882C36.7371 27.8949 36.6648 27.2886 36.6648 26.6653C36.6648 26.042 36.7371 25.4357 36.8471 24.8424L36.3393 24.5494C34.7459 23.6294 34.1953 21.5953 35.1153 19.9986C36.0353 18.402 38.0826 17.8578 39.6726 18.7812L40.2065 19.0872C41.1231 18.3038 42.1715 17.6873 43.3315 17.2773V16.6653C43.3315 14.822 44.8214 13.332 46.6648 13.332ZM46.6648 23.332C45.7807 23.332 44.9329 23.6832 44.3078 24.3083C43.6826 24.9334 43.3315 25.7812 43.3315 26.6653C43.3315 27.5494 43.6826 28.3972 44.3078 29.0223C44.9329 29.6474 45.7807 29.9986 46.6648 29.9986C47.5488 29.9986 48.3967 29.6474 49.0218 29.0223C49.6469 28.3972 49.9981 27.5494 49.9981 26.6653C49.9981 25.7812 49.6469 24.9334 49.0218 24.3083C48.3967 23.6832 47.5488 23.332 46.6648 23.332ZM26.6648 33.332C28.5081 33.332 29.9981 34.822 29.9981 36.6653V37.2773C31.1581 37.6906 32.2065 38.3038 33.1231 39.0872L33.657 38.7812C35.247 37.8645 37.2909 38.402 38.2143 39.9986C39.1343 41.5953 38.5836 43.6294 36.9903 44.5494L36.4825 44.8424C36.5925 45.4357 36.6648 46.042 36.6648 46.6653C36.6648 47.2886 36.5925 47.8949 36.4825 48.4882L36.9903 48.7812C38.587 49.7012 39.1376 51.7386 38.2143 53.332C37.5943 54.402 36.477 54.9986 35.3236 54.9986C34.757 54.9986 34.1803 54.8527 33.657 54.5494L33.1231 54.2434C32.2065 55.0268 31.1581 55.64 29.9981 56.0533V56.6653C29.9981 58.5086 28.5081 59.9986 26.6648 59.9986C24.8215 59.9986 23.3315 58.5086 23.3315 56.6653V56.0533C22.1715 55.64 21.1231 55.0268 20.2065 54.2434L19.6726 54.5494C19.1493 54.8527 18.5726 54.9986 18.0059 54.9986C16.8526 54.9986 15.732 54.402 15.1153 53.332C14.1953 51.7353 14.7459 49.7012 16.3393 48.7812L16.8471 48.4882C16.7371 47.8949 16.6648 47.2886 16.6648 46.6653C16.6648 46.042 16.7371 45.4357 16.8471 44.8424L16.3393 44.5494C14.7459 43.6294 14.1953 41.5953 15.1153 39.9986C16.0353 38.402 18.0793 37.8612 19.6726 38.7812L20.2065 39.0872C21.1231 38.3038 22.1715 37.6906 23.3315 37.2773V36.6653C23.3315 34.822 24.8215 33.332 26.6648 33.332ZM26.6648 43.332C25.7807 43.332 24.9329 43.6832 24.3078 44.3083C23.6826 44.9334 23.3315 45.7812 23.3315 46.6653C23.3315 47.5494 23.6826 48.3972 24.3078 49.0223C24.9329 49.6474 25.7807 49.9986 26.6648 49.9986C27.5488 49.9986 28.3967 49.6474 29.0218 49.0223C29.6469 48.3972 29.9981 47.5494 29.9981 46.6653C29.9981 45.7812 29.6469 44.9334 29.0218 44.3083C28.3967 43.6832 27.5488 43.332 26.6648 43.332Z" fill="current"/>
</svg>
