<svg viewBox="0 0 86 86" fill="current" xmlns="http://www.w3.org/2000/svg">
<path d="M42.9531 0.95935C42.1585 0.971772 41.4013 1.29895 40.8476 1.86908C40.294 2.43922 39.9891 3.20572 40 4.00037V13.0004C39.9944 13.3979 40.0678 13.7926 40.2161 14.1615C40.3643 14.5304 40.5844 14.8662 40.8635 15.1493C41.1427 15.4324 41.4753 15.6572 41.842 15.8106C42.2088 15.9641 42.6024 16.0431 43 16.0431C43.3976 16.0431 43.7912 15.9641 44.158 15.8106C44.5247 15.6572 44.8573 15.4324 45.1365 15.1493C45.4156 14.8662 45.6357 14.5304 45.7839 14.1615C45.9322 13.7926 46.0056 13.3979 46 13.0004V4.00037C46.0055 3.599 45.9304 3.20061 45.7791 2.82879C45.6279 2.45697 45.4036 2.11927 45.1195 1.83571C44.8354 1.55215 44.4972 1.32848 44.1251 1.17795C43.753 1.02741 43.3545 0.953081 42.9531 0.95935ZM15.3906 12.3969C14.7943 12.3982 14.2119 12.5771 13.7178 12.9109C13.2237 13.2447 12.8402 13.7182 12.6164 14.2709C12.3925 14.8236 12.3385 15.4304 12.4611 16.014C12.5837 16.5975 12.8774 17.1313 13.3047 17.5472L19.668 23.9105C19.9444 24.1984 20.2755 24.4283 20.6419 24.5866C21.0083 24.745 21.4026 24.8287 21.8017 24.8327C22.2008 24.8368 22.5967 24.7611 22.9663 24.6103C23.3358 24.4594 23.6715 24.2363 23.9537 23.9541C24.236 23.6719 24.459 23.3362 24.6099 22.9666C24.7608 22.5971 24.8364 22.2012 24.8323 21.8021C24.8283 21.4029 24.7446 21.0086 24.5863 20.6423C24.4279 20.2759 24.1981 19.9448 23.9102 19.6683L17.5469 13.3051C17.2666 13.017 16.9313 12.7881 16.5609 12.6321C16.1905 12.4761 15.7925 12.3961 15.3906 12.3969ZM70.5156 12.3969C69.7362 12.4201 68.9965 12.7458 68.4531 13.3051L62.0898 19.6683C61.8019 19.9448 61.5721 20.2759 61.4137 20.6423C61.2554 21.0086 61.1717 21.4029 61.1677 21.8021C61.1636 22.2012 61.2392 22.5971 61.3901 22.9666C61.541 23.3361 61.764 23.6718 62.0463 23.9541C62.3285 24.2363 62.6642 24.4594 63.0337 24.6103C63.4033 24.7611 63.7992 24.8368 64.1983 24.8327C64.5974 24.8286 64.9917 24.745 65.3581 24.5866C65.7245 24.4283 66.0556 24.1984 66.332 23.9105L72.6953 17.5472C73.1288 17.1259 73.4249 16.5833 73.5448 15.9908C73.6647 15.3982 73.6027 14.7833 73.3671 14.2265C73.1315 13.6697 72.7332 13.1972 72.2243 12.8707C71.7155 12.5442 71.1199 12.379 70.5156 12.3969ZM43 22.0004C37.4305 22.0004 32.089 24.2129 28.1508 28.1511C24.2125 32.0894 22 37.4308 22 43.0004C22 48.5699 24.2125 53.9113 28.1508 57.8496C32.089 61.7879 37.4305 64.0004 43 64.0004C48.5695 64.0004 53.911 61.7879 57.8492 57.8496C61.7875 53.9113 64 48.5699 64 43.0004C64 37.4308 61.7875 32.0894 57.8492 28.1511C53.911 24.2129 48.5695 22.0004 43 22.0004ZM4 40.0004C3.60247 39.9947 3.20778 40.0682 2.83887 40.2164C2.46997 40.3647 2.13421 40.5848 1.8511 40.8639C1.56799 41.143 1.34318 41.4756 1.18974 41.8424C1.03629 42.2092 0.957275 42.6028 0.957275 43.0004C0.957275 43.3979 1.03629 43.7916 1.18974 44.1583C1.34318 44.5251 1.56799 44.8577 1.8511 45.1368C2.13421 45.416 2.46997 45.6361 2.83887 45.7843C3.20778 45.9325 3.60247 46.006 4 46.0004H13C13.3975 46.006 13.7922 45.9325 14.1611 45.7843C14.53 45.6361 14.8658 45.416 15.1489 45.1368C15.432 44.8577 15.6568 44.5251 15.8103 44.1583C15.9637 43.7916 16.0427 43.3979 16.0427 43.0004C16.0427 42.6028 15.9637 42.2092 15.8103 41.8424C15.6568 41.4756 15.432 41.143 15.1489 40.8639C14.8658 40.5848 14.53 40.3647 14.1611 40.2164C13.7922 40.0682 13.3975 39.9947 13 40.0004H4ZM73 40.0004C72.6025 39.9947 72.2078 40.0682 71.8389 40.2164C71.47 40.3647 71.1342 40.5848 70.8511 40.8639C70.568 41.143 70.3432 41.4756 70.1897 41.8424C70.0363 42.2092 69.9573 42.6028 69.9573 43.0004C69.9573 43.3979 70.0363 43.7916 70.1897 44.1583C70.3432 44.5251 70.568 44.8577 70.8511 45.1368C71.1342 45.416 71.47 45.6361 71.8389 45.7843C72.2078 45.9325 72.6025 46.006 73 46.0004H82C82.3975 46.006 82.7922 45.9325 83.1611 45.7843C83.53 45.6361 83.8658 45.416 84.1489 45.1368C84.432 44.8577 84.6568 44.5251 84.8103 44.1583C84.9637 43.7916 85.0427 43.3979 85.0427 43.0004C85.0427 42.6028 84.9637 42.2092 84.8103 41.8424C84.6568 41.4756 84.432 41.143 84.1489 40.8639C83.8658 40.5848 83.53 40.3647 83.1611 40.2164C82.7922 40.0682 82.3975 39.9947 82 40.0004H73ZM21.7305 61.182C20.9511 61.2052 20.2113 61.531 19.668 62.0902L13.3047 68.4535C13.0168 68.7299 12.7869 69.061 12.6286 69.4274C12.4702 69.7938 12.3866 70.1881 12.3825 70.5872C12.3785 70.9863 12.4541 71.3822 12.6049 71.7518C12.7558 72.1213 12.9789 72.457 13.2611 72.7392C13.5434 73.0215 13.8791 73.2446 14.2486 73.3954C14.6181 73.5463 15.014 73.6219 15.4132 73.6179C15.8123 73.6138 16.2066 73.5301 16.573 73.3718C16.9393 73.2135 17.2704 72.9836 17.5469 72.6957L23.9102 66.3324C24.3437 65.911 24.6398 65.3685 24.7596 64.7759C24.8795 64.1834 24.8176 63.5684 24.582 63.0117C24.3463 62.4549 23.948 61.9823 23.4392 61.6558C22.9304 61.3293 22.3348 61.1642 21.7305 61.182ZM64.1816 61.182C63.5848 61.1822 63.0016 61.3603 62.5066 61.6936C62.0116 62.027 61.6272 62.5004 61.4026 63.0533C61.1781 63.6063 61.1235 64.2136 61.2459 64.7977C61.3683 65.3818 61.6622 65.9162 62.0898 66.3324L68.4531 72.6957C68.7296 72.9836 69.0607 73.2134 69.427 73.3718C69.7934 73.5301 70.1877 73.6138 70.5868 73.6178C70.986 73.6219 71.3819 73.5463 71.7514 73.3954C72.1209 73.2445 72.4566 73.0215 72.7389 72.7392C73.0211 72.457 73.2442 72.1213 73.395 71.7518C73.5459 71.3822 73.6215 70.9863 73.6175 70.5872C73.6134 70.1881 73.5298 69.7938 73.3714 69.4274C73.2131 69.061 72.9832 68.7299 72.6953 68.4535L66.332 62.0902C66.0525 61.8028 65.7181 61.5744 65.3488 61.4184C64.9794 61.2624 64.5826 61.182 64.1816 61.182ZM42.9531 69.9594C42.1585 69.9718 41.4013 70.2989 40.8476 70.8691C40.294 71.4392 39.9891 72.2057 40 73.0004V82.0004C39.9944 82.3979 40.0678 82.7926 40.2161 83.1615C40.3643 83.5304 40.5844 83.8662 40.8635 84.1493C41.1427 84.4324 41.4753 84.6572 41.842 84.8106C42.2088 84.9641 42.6024 85.0431 43 85.0431C43.3976 85.0431 43.7912 84.9641 44.158 84.8106C44.5247 84.6572 44.8573 84.4324 45.1365 84.1493C45.4156 83.8662 45.6357 83.5304 45.7839 83.1615C45.9322 82.7926 46.0056 82.3979 46 82.0004V73.0004C46.0055 72.599 45.9304 72.2006 45.7791 71.8288C45.6279 71.457 45.4036 71.1193 45.1195 70.8357C44.8354 70.5521 44.4972 70.3285 44.1251 70.1779C43.753 70.0274 43.3545 69.9531 42.9531 69.9594Z" fill="current"/>
</svg>
