<svg viewBox="0 0 80 77" fill="current" xmlns="http://www.w3.org/2000/svg">
<path d="M23.3333 0C15.5556 0 5.61198 3.5026 5.61198 3.5026C4.94812 3.72408 4.3708 4.14886 3.96183 4.71675C3.55285 5.28464 3.33297 5.96684 3.33333 6.66667V10.9245C1.34789 12.0787 0 14.2035 0 16.6667V66.6667C0 70.35 2.98333 73.3333 6.66667 73.3333H34.2383C34.8224 74.3451 35.6621 75.1855 36.6733 75.7706C37.6846 76.3556 38.8318 76.6646 40 76.6667C41.1693 76.6657 42.3179 76.3573 43.3303 75.7722C44.3428 75.1871 45.1836 74.346 45.7682 73.3333H73.3333C77.0167 73.3333 80 70.35 80 66.6667V16.6667C80 14.2035 78.6521 12.0787 76.6667 10.9245V6.66667C76.667 5.96684 76.4472 5.28464 76.0382 4.71675C75.6292 4.14886 75.0519 3.72408 74.388 3.5026C74.388 3.5026 64.4444 0 56.6667 0C49.5792 0 41.5215 2.67355 40 3.1901C38.4785 2.67355 30.4208 0 23.3333 0ZM23.3333 6.66667C27.7826 6.66667 33.9215 8.391 36.6667 9.19922V62.181C33.3118 61.2261 28.1689 60 23.3333 60C18.4269 60 13.5901 61.1774 10 62.207V9.36849C12.2424 8.69517 18.5887 6.66667 23.3333 6.66667ZM56.6667 6.66667C61.4113 6.66667 67.7576 8.69517 70 9.36849V62.207C66.4099 61.1774 61.5731 60 56.6667 60C51.8311 60 46.6882 61.2261 43.3333 62.181V9.19922C46.0785 8.391 52.2174 6.66667 56.6667 6.66667Z" fill="current"/>
</svg>
