<svg viewBox="0 0 74 84" fill="current" xmlns="http://www.w3.org/2000/svg">
<path d="M36.9999 0.666992C24.1521 0.666992 13.6666 11.1525 13.6666 24.0003V30.667H6.99992C3.31658 30.667 0.333252 33.6503 0.333252 37.3337V77.3336C0.333252 81.017 3.31658 84.0003 6.99992 84.0003H66.9999C70.6832 84.0003 73.6666 81.017 73.6666 77.3336V37.3337C73.6666 33.6503 70.6832 30.667 66.9999 30.667H60.3332V24.0003C60.3332 11.5723 50.4552 1.56221 38.1848 0.907878C37.8078 0.756027 37.4063 0.674389 36.9999 0.666992ZM36.9999 7.33366C46.2455 7.33366 53.6666 14.7548 53.6666 24.0003V30.667H20.3333V24.0003C20.3333 14.7548 27.7544 7.33366 36.9999 7.33366ZM16.9999 50.667C20.6833 50.667 23.6666 53.6503 23.6666 57.3337C23.6666 61.0137 20.6833 64.0003 16.9999 64.0003C13.3166 64.0003 10.3333 61.0137 10.3333 57.3337C10.3333 53.6503 13.3166 50.667 16.9999 50.667ZM36.9999 50.667C40.6832 50.667 43.6666 53.6503 43.6666 57.3337C43.6666 61.0137 40.6832 64.0003 36.9999 64.0003C33.3166 64.0003 30.3332 61.0137 30.3332 57.3337C30.3332 53.6503 33.3166 50.667 36.9999 50.667ZM56.9999 50.667C60.6832 50.667 63.6666 53.6503 63.6666 57.3337C63.6666 61.0137 60.6832 64.0003 56.9999 64.0003C53.3166 64.0003 50.3332 61.0137 50.3332 57.3337C50.3332 53.6503 53.3166 50.667 56.9999 50.667Z" fill="current"/>
</svg>
