<svg viewBox="0 0 90 80" fill="current" xmlns="http://www.w3.org/2000/svg">
<path d="M6.66667 0C2.99 0 0 2.99 0 6.66667V73.3333C0 77.01 2.99 80 6.66667 80H53.3333C57.01 80 60 77.01 60 73.3333V43.3333H33.3333C31.4933 43.3333 30 41.84 30 40C30 38.16 31.4933 36.6667 33.3333 36.6667H60V6.66667C60 2.99 57.01 0 53.3333 0H6.66667ZM60 36.6667V43.3333H78.6198L70.9766 50.9766C70.6567 51.2837 70.4012 51.6516 70.2253 52.0587C70.0493 52.4658 69.9564 52.9039 69.9519 53.3474C69.9473 53.7909 70.0314 54.2308 70.199 54.6414C70.3666 55.052 70.6145 55.425 70.9281 55.7386C71.2417 56.0522 71.6147 56.3 72.0253 56.4677C72.4359 56.6353 72.8758 56.7193 73.3193 56.7148C73.7628 56.7103 74.2009 56.6173 74.608 56.4414C75.0151 56.2654 75.383 56.01 75.6901 55.6901L89.0234 42.3568C89.6483 41.7316 89.9994 40.8839 89.9994 40C89.9994 39.1161 89.6483 38.2684 89.0234 37.6432L75.6901 24.3099C75.3795 23.9906 75.008 23.7368 74.5976 23.5634C74.1872 23.3901 73.7463 23.3008 73.3008 23.3008C72.6377 23.301 71.9897 23.4989 71.4397 23.8693C70.8896 24.2396 70.4625 24.7656 70.213 25.38C69.9635 25.9944 69.9029 26.6692 70.0389 27.3182C70.1749 27.9672 70.5014 28.5609 70.9766 29.0234L78.6198 36.6667H60Z" fill="current"/>
</svg>
