<svg viewBox="0 0 74 74" xmlns="http://www.w3.org/2000/svg" fill="current">
<path d="M6.99992 0.333008C3.31658 0.333008 0.333252 3.31634 0.333252 6.99967V26.9997C0.333252 30.683 3.31658 33.6663 6.99992 33.6663H26.9999C30.6832 33.6663 33.6666 30.683 33.6666 26.9997V6.99967C33.6666 3.31634 30.6832 0.333008 26.9999 0.333008H6.99992ZM46.9999 0.333008C43.3166 0.333008 40.3332 3.31634 40.3332 6.99967V26.9997C40.3332 30.683 43.3166 33.6663 46.9999 33.6663H66.9999C70.6832 33.6663 73.6666 30.683 73.6666 26.9997V6.99967C73.6666 3.31634 70.6832 0.333008 66.9999 0.333008H46.9999ZM16.9999 6.99967C18.8433 6.99967 20.3333 8.49301 20.3333 10.333V13.6663H23.6666C25.5099 13.6663 26.9999 15.1597 26.9999 16.9997C26.9999 18.8397 25.5099 20.333 23.6666 20.333H20.3333V23.6663C20.3333 25.5063 18.8433 26.9997 16.9999 26.9997C15.1566 26.9997 13.6666 25.5063 13.6666 23.6663V20.333H10.3333C8.48992 20.333 6.99992 18.8397 6.99992 16.9997C6.99992 15.1597 8.48992 13.6663 10.3333 13.6663H13.6666V10.333C13.6666 8.49301 15.1566 6.99967 16.9999 6.99967ZM50.3332 13.6663H63.6666C65.5099 13.6663 66.9999 15.1597 66.9999 16.9997C66.9999 18.8397 65.5099 20.333 63.6666 20.333H50.3332C48.4899 20.333 46.9999 18.8397 46.9999 16.9997C46.9999 15.1597 48.4899 13.6663 50.3332 13.6663ZM6.99992 40.333C3.31658 40.333 0.333252 43.3163 0.333252 46.9997V66.9997C0.333252 70.683 3.31658 73.6663 6.99992 73.6663H26.9999C30.6832 73.6663 33.6666 70.683 33.6666 66.9997V46.9997C33.6666 43.3163 30.6832 40.333 26.9999 40.333H6.99992ZM46.9999 40.333C43.3166 40.333 40.3332 43.3163 40.3332 46.9997V66.9997C40.3332 70.683 43.3166 73.6663 46.9999 73.6663H66.9999C70.6832 73.6663 73.6666 70.683 73.6666 66.9997V46.9997C73.6666 43.3163 70.6832 40.333 66.9999 40.333H46.9999ZM50.3332 46.9997H63.6666C65.5099 46.9997 66.9999 48.493 66.9999 50.333C66.9999 52.173 65.5099 53.6663 63.6666 53.6663H50.3332C48.4899 53.6663 46.9999 52.173 46.9999 50.333C46.9999 48.493 48.4899 46.9997 50.3332 46.9997ZM11.9999 48.6663C12.8524 48.6663 13.705 48.9912 14.3567 49.6429L16.9999 52.2861L19.6431 49.6429C20.9465 48.3396 23.0534 48.3396 24.3567 49.6429C25.66 50.9462 25.66 53.0531 24.3567 54.3564L21.7135 56.9997L24.3567 59.6429C25.66 60.9462 25.66 63.0531 24.3567 64.3564C23.7067 65.0064 22.8533 65.333 21.9999 65.333C21.1466 65.333 20.2931 65.0064 19.6431 64.3564L16.9999 61.7132L14.3567 64.3564C13.7067 65.0064 12.8533 65.333 11.9999 65.333C11.1466 65.333 10.2931 65.0064 9.64315 64.3564C8.33981 63.0531 8.33981 60.9462 9.64315 59.6429L12.2864 56.9997L9.64315 54.3564C8.33981 53.0531 8.33981 50.9462 9.64315 49.6429C10.2948 48.9912 11.1474 48.6663 11.9999 48.6663ZM50.3332 60.333H63.6666C65.5099 60.333 66.9999 61.8263 66.9999 63.6663C66.9999 65.5063 65.5099 66.9997 63.6666 66.9997H50.3332C48.4899 66.9997 46.9999 65.5063 46.9999 63.6663C46.9999 61.8263 48.4899 60.333 50.3332 60.333Z" fill="current"/></svg>