<svg viewBox="0 0 84 67" fill="current" xmlns="http://www.w3.org/2000/svg">
<path d="M38.7288 0C38.0122 0 37.282 0.270964 36.6862 0.86263L16.6667 20.8822H8.33333C3.72917 20.8822 0 24.6113 0 29.2155V37.5488C0 42.153 3.72917 45.8822 8.33333 45.8822H16.6667L36.6862 65.9017C37.282 66.4975 38.0122 66.7643 38.7288 66.7643C40.2288 66.7643 41.6667 65.6011 41.6667 63.8428V2.92155C41.6667 1.16322 40.2288 0 38.7288 0ZM54.126 16.6748C53.2971 16.675 52.4871 16.9224 51.7996 17.3854C51.112 17.8484 50.5782 18.5059 50.2663 19.2738C49.9544 20.0418 49.8786 20.8854 50.0486 21.6966C50.2186 22.5079 50.6267 23.25 51.2207 23.8281L60.7747 33.3822L51.2207 42.9362C50.8208 43.3201 50.5015 43.78 50.2816 44.2889C50.0617 44.7977 49.9455 45.3454 49.9398 45.8997C49.9342 46.4541 50.0392 47.004 50.2487 47.5172C50.4583 48.0304 50.7681 48.4967 51.1601 48.8887C51.5521 49.2807 52.0184 49.5905 52.5316 49.8001C53.0449 50.0096 53.5948 50.1146 54.1491 50.109C54.7034 50.1034 55.2511 49.9872 55.7599 49.7672C56.2688 49.5473 56.7287 49.228 57.1126 48.8281L66.6667 39.2741L76.2207 48.8281C76.6046 49.228 77.0645 49.5473 77.5734 49.7672C78.0822 49.9872 78.6299 50.1034 79.1842 50.109C79.7386 50.1146 80.2885 50.0096 80.8017 49.8001C81.3149 49.5905 81.7812 49.2807 82.1732 48.8887C82.5652 48.4967 82.875 48.0304 83.0846 47.5172C83.2941 47.004 83.3992 46.4541 83.3935 45.8997C83.3879 45.3454 83.2717 44.7977 83.0517 44.2889C82.8318 43.78 82.5125 43.3201 82.1126 42.9362L72.5586 33.3822L82.1126 23.8281C82.7147 23.2429 83.126 22.4894 83.2925 21.6664C83.459 20.8434 83.3729 19.9893 83.0457 19.216C82.7184 18.4427 82.1652 17.7863 81.4585 17.3329C80.7518 16.8794 79.9246 16.6501 79.0853 16.6748C78.0028 16.7071 76.9754 17.1595 76.2207 17.9362L66.6667 27.4902L57.1126 17.9362C56.7243 17.5371 56.26 17.2198 55.747 17.0031C55.234 16.7865 54.6828 16.6748 54.126 16.6748Z" fill="current"/>
</svg>
