<svg viewBox="0 0 92 76" fill="current" xmlns="http://www.w3.org/2000/svg">
<path d="M6 0C2.69531 0 0 2.69531 0 6V70C0 73.3047 2.69531 76 6 76H86C89.3047 76 92 73.3047 92 70V6C92 2.69531 89.3047 0 86 0H6ZM6 4H54V72H6C4.89844 72 4 71.1016 4 70V6C4 4.89844 4.89844 4 6 4ZM23.8359 25.9766C23.3203 26 22.8281 26.2188 22.4688 26.5938L11.1875 38L22.4688 49.4062C22.9609 49.9297 23.7109 50.1484 24.4062 49.9688C25.1094 49.7891 25.6562 49.2422 25.8438 48.5469C26.0312 47.8438 25.8281 47.1016 25.3125 46.5938L18.7891 40H43.8828C44.6094 40.0078 45.2812 39.6328 45.6406 39.0078C46.0078 38.3828 46.0078 37.6172 45.6406 36.9922C45.2812 36.3672 44.6094 35.9922 43.8828 36H18.7891L25.3125 29.4062C25.8984 28.8281 26.0703 27.9453 25.7422 27.1875C25.4219 26.4297 24.6641 25.9531 23.8359 25.9766Z" fill="current"/>
</svg>
