<svg viewBox="0 0 89 89" fill="current" xmlns="http://www.w3.org/2000/svg">
<path d="M4.24219 0L0 4.24219L13.7285 17.9707C13.7158 17.9834 13.7002 17.9932 13.6875 18.0059L36.8145 41.1328C36.8271 41.1201 36.8428 41.1103 36.8555 41.0977L41.0742 45.3164C41.0616 45.3291 41.0458 45.3389 41.0332 45.3516L78.5566 82.8809C78.5852 82.8848 78.6159 82.8829 78.6445 82.8867L84 88.2422L88.2422 84L77.1562 72.9141C80.8495 69.2225 83.1211 64.4119 83.1211 59.1211C83.1211 47.5231 72.3751 38.1211 59.1211 38.1211C54.2186 38.1211 49.6844 39.4368 45.8906 41.6484L41.543 37.3008C46.4837 34.0556 52.5472 32.1211 59.1211 32.1211C63.2671 32.1211 67.2194 32.8828 70.8164 34.2598C68.7284 19.5178 54.9031 8.12109 38.1211 8.12109C30.7009 8.12109 23.8791 10.3699 18.375 14.1328L4.24219 0ZM9.86719 22.6758C6.87319 27.1938 5.12109 32.4631 5.12109 38.1211C5.12109 46.6321 9.04355 54.2853 15.3105 59.7363C14.4105 62.6793 12.5349 65.6107 9.08789 68.2207V68.2266C8.52689 68.4426 8.12109 68.9821 8.12109 69.6211C8.12109 70.4491 8.79309 71.1211 9.62109 71.1211C9.70809 71.1211 9.78033 71.0862 9.86133 71.0742L9.86719 71.0918C15.7142 71.0918 20.6991 68.5958 24.6621 65.4668C26.5371 66.2288 28.4932 66.8541 30.5332 67.2891C29.6212 64.7121 29.1211 61.9681 29.1211 59.1211C29.1211 54.2911 30.5572 49.7649 33.0352 45.8379L9.86719 22.6758ZM37.4121 50.2148C35.9601 52.9238 35.1211 55.9321 35.1211 59.1211C35.1211 70.7191 45.8671 80.1211 59.1211 80.1211C61.6351 80.1211 64.0511 79.7609 66.3281 79.1309L37.4121 50.2148Z" fill="current"/>
</svg>
