<svg viewBox="0 0 100 68" fill="current" xmlns="http://www.w3.org/2000/svg">
<path d="M50 0.666992C20.2723 0.666992 1.06996 31.3709 0.722656 31.93C0.255178 32.5189 0.000505409 33.2485 0 34.0003C0.000591344 34.6453 0.1883 35.2763 0.540365 35.8167C0.544682 35.8233 0.549022 35.8298 0.553385 35.8363C0.610698 35.9545 16.7294 67.3337 50 67.3337C83.1294 67.3337 99.2244 36.2628 99.4206 35.8818C99.4338 35.8603 99.4469 35.8386 99.4596 35.8167C99.8117 35.2763 99.9994 34.6453 100 34.0003C99.9999 33.2515 99.7476 32.5245 99.2839 31.9365C99.2817 31.9343 99.2795 31.9322 99.2773 31.93C98.93 31.3709 79.7277 0.666992 50 0.666992ZM50 10.667C62.8867 10.667 73.3333 21.1137 73.3333 34.0003C73.3333 46.887 62.8867 57.3337 50 57.3337C37.1133 57.3337 26.6667 46.887 26.6667 34.0003C26.6667 21.1137 37.1133 10.667 50 10.667ZM50 24.0003C47.3478 24.0003 44.8043 25.0539 42.9289 26.9293C41.0536 28.8046 40 31.3482 40 34.0003C40 36.6525 41.0536 39.196 42.9289 41.0714C44.8043 42.9468 47.3478 44.0003 50 44.0003C52.6522 44.0003 55.1957 42.9468 57.0711 41.0714C58.9464 39.196 60 36.6525 60 34.0003C60 31.3482 58.9464 28.8046 57.0711 26.9293C55.1957 25.0539 52.6522 24.0003 50 24.0003Z" fill="current"/>
</svg>
