<svg width="25" viewBox="0 0 98 89" fill="current" xmlns="http://www.w3.org/2000/svg">
<path d="M30.481 0.000217286C29.9654 -0.00759471 29.4888 0.195529 29.106 0.562717C27.6295 1.96897 25.1529 4.77366 23.106 7.18772C22.3482 8.07834 22.6295 9.40647 23.6685 9.93772C26.7388 11.508 32.5435 15.1174 37.481 21.7502C38.1373 22.633 37.9888 23.9065 37.106 24.5627C36.7466 24.8283 36.3326 24.9377 35.9185 24.9377C35.3091 24.9377 34.6841 24.6565 34.2935 24.1252C29.567 17.7658 23.567 14.3908 20.4185 12.9377C20.2701 12.8674 20.1373 12.8518 19.981 12.8127C18.4576 13.8283 16.2857 15.3518 13.981 17.2502C11.0748 20.6018 8.06696 24.5393 5.98102 29.3127C5.62165 30.133 5.91071 31.0783 6.60602 31.6252C11.106 34.133 17.2779 37.7033 20.981 41.0002C12.7466 42.844 6.12946 50.2424 1.16852 57.4377C0.879462 57.8674 0.6529 58.2346 0.418524 58.5627C-0.120538 59.3049 -0.136164 60.2893 0.356024 61.0627C2.37946 64.2502 7.49665 72.3596 7.54352 72.4377C7.87165 72.9768 8.41071 73.3205 9.04352 73.3752C9.41071 73.4143 9.78571 73.344 10.106 73.1877C12.317 70.9377 15.2701 68.0627 17.4185 66.6252C16.3951 69.5549 16.5435 75.1877 16.5435 75.1877L16.606 76.5627C16.8717 77.0705 17.3326 77.4299 17.9185 77.5627L27.106 79.6877C27.1998 79.7112 27.2623 79.6799 27.356 79.6877C30.3092 82.4299 35.0826 84.8752 42.856 85.6877C44.4029 87.2112 46.442 88.0627 48.606 88.0627C50.7545 88.0627 52.817 87.2033 54.356 85.6877C62.1763 84.8987 66.9654 82.4612 69.9185 79.6877C70.1607 79.6877 70.4342 79.6565 70.6685 79.5627L79.0435 76.2502C79.8092 75.9533 80.2935 75.1955 80.2935 74.3752C80.0904 71.9846 79.6763 68.1408 78.606 65.1877C80.4263 65.8518 84.0435 68.258 86.731 70.1252C86.817 70.1565 86.856 70.1408 86.9185 70.1877C87.7701 70.8205 88.9888 70.6799 89.6685 69.8752C89.7076 69.8283 93.8638 64.7815 96.606 61.4377C97.481 60.3752 97.3873 58.7815 96.356 57.8752C95.481 57.1096 94.3795 56.1643 93.231 55.2502C87.7623 51.258 82.6685 49.1877 82.6685 49.1877L93.2935 49.0627C93.8092 49.008 94.2779 48.7815 94.606 48.3752C94.981 47.9221 95.1529 47.3283 95.0435 46.7502L93.731 40.6877C93.5982 39.9846 93.0592 39.4299 92.4185 39.1877C88.4185 39.219 81.7388 39.2737 78.856 39.3752C81.1451 37.383 85.5513 34.6408 88.731 32.7502C88.7467 32.719 88.7935 32.6877 88.7935 32.6877C89.2623 32.4377 89.6373 32.0158 89.7935 31.5002C89.942 30.9846 89.8638 30.4065 89.606 29.9377C87.8638 26.7502 81.4654 14.0393 77.856 11.6877C77.3482 11.3596 76.7388 11.258 76.1685 11.4377C66.5826 15.1487 64.3404 20.0862 62.356 21.9377C63.8873 18.4143 66.3013 13.7502 67.981 10.5002C67.9654 10.4846 67.9185 10.4377 67.9185 10.4377C68.2701 9.75803 68.1842 8.9299 67.731 8.31272C67.356 7.80491 65.4185 4.8049 63.0435 3.06272C62.3873 2.57834 61.4888 2.50803 60.7935 2.93772C59.1373 3.96897 55.5045 8.3049 54.5435 12.8127C54.5591 10.719 54.6685 3.03147 54.6685 3.00022C54.7076 1.89866 53.8951 0.976779 52.7935 0.937717L44.981 0.437717C44.3716 0.422093 43.817 0.664279 43.4185 1.12522C43.231 1.33616 43.0591 1.60959 42.981 1.87522L45.481 15.5002C45.481 15.5002 40.4732 5.07834 32.106 0.437717C31.7154 0.289279 31.3873 0.156467 31.0435 0.0627173C30.8717 0.0158433 30.6529 0.000217286 30.481 0.000217286ZM48.9185 30.0627C56.8873 30.1565 62.6763 33.7033 64.606 35.0627C64.6529 40.6643 65.0748 45.844 65.9185 50.9377C66.0904 51.9768 67.067 52.7112 68.106 52.6252C68.1295 52.6252 68.3951 52.5627 68.4185 52.5627C70.192 52.5627 71.6685 54.0393 71.6685 55.8127C71.6685 57.1565 70.7701 58.3518 69.481 58.8127C68.4888 59.1721 67.9342 60.2346 68.231 61.2502C68.6763 62.7971 69.106 64.1487 69.481 65.3127C70.0748 67.1565 70.606 68.7346 70.606 69.4377C70.606 71.9846 69.356 80.4455 53.231 81.8127C52.692 81.8596 52.1998 82.0862 51.856 82.5002C50.1998 84.4846 46.9966 84.4924 45.356 82.5002C45.0123 82.0862 44.5123 81.7971 43.981 81.7502C27.4576 80.2815 26.606 71.2346 26.606 69.4377C26.606 68.3205 27.2857 65.9924 28.0435 63.3127L28.6685 61.1252C28.9342 60.1643 28.4029 59.1487 27.481 58.7502C26.3013 58.2424 25.5435 57.1018 25.5435 55.8127C25.5435 54.0393 27.0201 52.5705 28.6685 52.5627C28.7232 52.5705 28.8638 52.6174 28.9185 52.6252C29.9654 52.6643 30.856 51.9924 31.0435 51.0002C32.0123 45.7737 32.5279 40.6487 32.606 35.5002C35.3404 34.6252 41.731 32.5783 48.9185 30.0627ZM44.231 40.1877C44.1685 40.2033 44.106 40.2268 44.0435 40.2502C43.8716 40.2893 43.6998 40.3518 43.5435 40.4377L35.1685 44.6252C34.5045 44.9299 34.0513 45.5783 34.0045 46.3127C33.9576 47.0393 34.317 47.7424 34.9341 48.133C35.5591 48.5237 36.3404 48.5471 36.981 48.1877L45.356 44.0002C46.2935 43.6018 46.7857 42.5705 46.4966 41.594C46.2076 40.6174 45.231 40.008 44.231 40.1877ZM52.481 42.3127C51.5123 42.4299 50.7779 43.2268 50.731 44.2033C50.6841 45.1721 51.3404 46.0393 52.2935 46.2502L60.6685 48.3752C61.3873 48.6096 62.1763 48.4299 62.7076 47.8987C63.2388 47.3674 63.4341 46.5783 63.1998 45.8596C62.9654 45.1408 62.3482 44.6174 61.606 44.5002L53.2935 42.3752C53.0279 42.2971 52.7545 42.2815 52.481 42.3127ZM40.0435 52.3127C38.7466 52.3127 37.6685 53.3283 37.6685 54.6252C37.6685 55.9221 38.7466 57.0002 40.0435 57.0002C41.3404 57.0002 42.356 55.9221 42.356 54.6252C42.356 53.3283 41.3404 52.3127 40.0435 52.3127ZM56.4185 52.3127C55.1216 52.3127 54.106 53.3283 54.106 54.6252C54.106 55.9221 55.1216 57.0002 56.4185 57.0002C57.7154 57.0002 58.7935 55.9221 58.7935 54.6252C58.7935 53.3283 57.7154 52.3127 56.4185 52.3127ZM42.356 63.1252C32.7154 65.4768 31.9185 73.5627 31.9185 73.5627H65.2935C65.2935 73.5627 65.4107 65.9065 54.856 63.1252C54.856 63.1252 52.7154 67.2502 48.606 67.2502C44.4966 67.2502 42.356 63.1252 42.356 63.1252Z" fill="current"/>
</svg>
