<svg width="62" height="69" viewBox="0 0 62 69" fill="current" xmlns="http://www.w3.org/2000/svg">
<path d="M25 1.64766e-06C24.6026 -0.00539172 24.2081 0.0682208 23.8394 0.216565C23.4707 0.364908 23.1351 0.585027 22.8522 0.864138C22.5693 1.14325 22.3446 1.47579 22.1913 1.84245C22.038 2.2091 21.959 2.60257 21.959 3H4C3.60247 2.99438 3.20778 3.06782 2.83887 3.21606C2.46997 3.36431 2.13421 3.58439 1.8511 3.86352C1.56799 4.14265 1.34318 4.47527 1.18974 4.84204C1.03629 5.20882 0.957275 5.60243 0.957275 6C0.957275 6.39758 1.03629 6.79119 1.18974 7.15796C1.34318 7.52473 1.56799 7.85735 1.8511 8.13648C2.13421 8.41562 2.46997 8.6357 2.83887 8.78394C3.20778 8.93218 3.60247 9.00562 4 9H58C58.3975 9.00562 58.7922 8.93218 59.1611 8.78394C59.53 8.6357 59.8658 8.41562 60.1489 8.13648C60.432 7.85735 60.6568 7.52473 60.8103 7.15796C60.9637 6.79119 61.0427 6.39758 61.0427 6C61.0427 5.60243 60.9637 5.20882 60.8103 4.84204C60.6568 4.47527 60.432 4.14265 60.1489 3.86352C59.8658 3.58439 59.53 3.36431 59.1611 3.21606C58.7922 3.06782 58.3975 2.99438 58 3H40.041C40.041 2.60257 39.9621 2.2091 39.8087 1.84245C39.6554 1.47579 39.4307 1.14325 39.1478 0.864138C38.8649 0.585027 38.5293 0.364908 38.1606 0.216565C37.7919 0.0682208 37.3974 -0.00539172 37 1.64766e-06H25ZM4 15V63C4 66.315 6.685 69 10 69H52C55.315 69 58 66.315 58 63V15H4ZM22 30C22.7673 30 23.5346 30.2924 24.1211 30.8789L31 37.7578L37.8789 30.8789C39.0519 29.7059 40.9481 29.7059 42.1211 30.8789C43.2941 32.0519 43.2941 33.9481 42.1211 35.1211L35.2422 42L42.1211 48.8789C43.2941 50.0519 43.2941 51.9481 42.1211 53.1211C41.5361 53.7061 40.768 54 40 54C39.232 54 38.4639 53.7061 37.8789 53.1211L31 46.2422L24.1211 53.1211C23.5361 53.7061 22.768 54 22 54C21.232 54 20.4639 53.7061 19.8789 53.1211C18.7059 51.9481 18.7059 50.0519 19.8789 48.8789L26.7578 42L19.8789 35.1211C18.7059 33.9481 18.7059 32.0519 19.8789 30.8789C20.4654 30.2924 21.2328 30 22 30Z" fill="current"/>
</svg>
