<svg viewBox="0 0 88 80" fill="current" xmlns="http://www.w3.org/2000/svg">
<path d="M10.6667 2.33206e-06C9.78269 2.33206e-06 8.93485 0.351192 8.30973 0.976313C7.6846 1.60143 7.33341 2.44928 7.33341 3.33334C7.33412 3.63487 7.37573 3.93492 7.45711 4.22526C7.45926 4.23178 7.46143 4.23829 7.46362 4.24479L10.6667 26.6667L0.666748 33.3333L70.6667 40L0.666748 46.6667L10.6667 53.3333L7.46362 75.7617C7.37886 76.056 7.33505 76.3605 7.33341 76.6667C7.33341 77.5507 7.6846 78.3986 8.30973 79.0237C8.93485 79.6488 9.78269 80 10.6667 80C11.1099 79.9976 11.5481 79.9069 11.9558 79.7331L11.9623 79.7396L12.1055 79.668L12.1772 79.6354C12.1968 79.6248 12.2163 79.6139 12.2358 79.6029L85.3022 43.0729L85.3087 43.0599C85.9085 42.8039 86.42 42.3775 86.7799 41.8336C87.1398 41.2897 87.3323 40.6522 87.3334 40C87.333 39.346 87.1402 38.7065 86.779 38.1613C86.4178 37.616 85.9042 37.1891 85.3022 36.9336V36.9271H85.2957L12.2618 0.410159C12.1645 0.35526 12.0646 0.305284 11.9623 0.260419C11.5522 0.0880214 11.1117 -0.000523923 10.6667 2.33206e-06Z" fill="current"/>
</svg>
