<svg width="80" height="80" viewBox="0 0 80 80" fill="none" xmlns="http://www.w3.org/2000/svg">
<path d="M76.6667 0C76.3467 0.00219453 76.0288 0.0504322 75.7227 0.143229C75.6325 0.16769 75.5435 0.195926 75.4557 0.227865L2.16797 23.5352V23.5482C1.5321 23.7855 0.983808 24.2112 0.596397 24.7684C0.208986 25.3257 0.00091549 25.988 0 26.6667C0.00121423 27.2391 0.149801 27.8015 0.431449 28.2998C0.713097 28.7981 1.11832 29.2155 1.60807 29.5117L23.8802 47.181L67.9102 12.0898L32.819 56.1198L50.4753 78.3789C50.7711 78.873 51.1898 79.282 51.6907 79.5661C52.1916 79.8502 52.7575 79.9997 53.3333 80C54.012 79.9991 54.6743 79.791 55.2315 79.4036C55.7888 79.0162 56.2145 78.4679 56.4518 77.832H56.4648L79.7917 4.47917C79.8155 4.4126 79.8372 4.34529 79.8568 4.27734C79.9496 3.97118 79.9978 3.65325 80 3.33333C80 2.44928 79.6488 1.60143 79.0237 0.976311C78.3986 0.351189 77.5507 0 76.6667 0Z" fill="black"/>
</svg>
