<svg viewBox="0 0 84 73" fill="current" xmlns="http://www.w3.org/2000/svg">
<path d="M54.1423 9.43558e-05C51.9243 -0.0152298 50 1.83792 50 4.1749C50 6.01657 51.2115 7.67581 52.9948 8.12998C64.8776 11.1573 73.8224 21.3478 74.8942 33.7647C74.9657 34.5925 75 35.4333 75 36.2794C75 49.8169 65.6698 61.1996 52.9948 64.4288C51.2115 64.883 50 66.5422 50 68.3839C50 71.0547 52.519 73.0949 55.1107 72.4366C71.3357 68.3158 83.3333 53.6669 83.3333 36.2794C83.3333 18.8919 71.3357 4.243 55.1107 0.122165C54.7867 0.039873 54.4591 0.00228311 54.1423 9.43558e-05ZM37.9557 4.68759C36.7824 4.54968 35.5384 4.90765 34.554 5.89202L16.6667 23.7794H8.33333C3.72917 23.7794 0 27.5086 0 32.1127V40.4461C0 45.0502 3.72917 48.7794 8.33333 48.7794H16.6667L34.554 66.6668C37.179 69.2918 41.6667 67.4333 41.6667 63.7208V8.83798C41.6667 6.51767 39.9113 4.91745 37.9557 4.68759ZM54.0039 17.684C51.9039 17.7637 50 19.5232 50 21.867V21.9646C50 23.4313 50.7714 24.7963 52.0589 25.5046C55.8923 27.6171 58.3333 31.6461 58.3333 36.2794C58.3333 40.9127 55.8923 44.9377 52.0589 47.046C50.7714 47.7543 50 49.1275 50 50.5942V50.6837C50 53.8129 53.395 55.9081 56.1117 54.3539C62.445 50.7331 66.6667 44.0002 66.6667 36.2794C66.6667 28.5586 62.445 21.8298 56.1117 18.2048C55.4325 17.8173 54.7039 17.6574 54.0039 17.684Z" fill="current"/>
</svg>
