<svg viewBox="0 0 81 80" fill="current" xmlns="http://www.w3.org/2000/svg">
<path d="M10 0C7.34784 0 4.8043 1.05357 2.92893 2.92893C1.05357 4.8043 0 7.34784 0 10C0 12.6522 1.05357 15.1957 2.92893 17.0711C4.8043 18.9464 7.34784 20 10 20C12.6522 20 15.1957 18.9464 17.0711 17.0711C18.9464 15.1957 20 12.6522 20 10C20 7.34784 18.9464 4.8043 17.0711 2.92893C15.1957 1.05357 12.6522 0 10 0ZM26.6667 3.33333V10H70V46.6667H33.3333H30H26.6667V49.4401C26.6072 49.8001 26.6072 50.1674 26.6667 50.5273V53.3333H30H33.3333H76.6667C77.1084 53.3396 77.5469 53.258 77.9568 53.0933C78.3667 52.9285 78.7398 52.684 79.0543 52.3739C79.3689 52.0637 79.6187 51.6941 79.7892 51.2866C79.9597 50.8791 80.0475 50.4417 80.0475 50C80.0475 49.5582 79.9597 49.1209 79.7892 48.7134C79.6187 48.3059 79.3689 47.9363 79.0543 47.6261C78.7398 47.316 78.3667 47.0714 77.9568 46.9067C77.5469 46.742 77.1084 46.6604 76.6667 46.6667V6.66667C76.6666 5.78264 76.3154 4.93484 75.6903 4.30974C75.0652 3.68464 74.2174 3.33342 73.3333 3.33333H26.6667ZM39.9349 19.974C39.2964 19.9943 38.6772 20.1977 38.151 20.5599L28.9909 26.6667H26.6667H6.66667C2.98333 26.6667 0 29.65 0 33.3333V76.556C0 78.456 1.54401 80 3.44401 80C5.25734 80 6.76151 78.5905 6.88151 76.7839L8.33984 54.8893C8.39984 54.016 9.12333 53.3333 10 53.3333C10.8767 53.3333 11.6002 54.0128 11.6602 54.8828L13.1185 76.7839C13.2385 78.5938 14.7427 80 16.556 80C18.456 80 20 78.456 20 76.556V36.6667C20 34.8267 21.4933 33.3333 23.3333 33.3333H30C30.6581 33.3333 31.3014 33.1385 31.849 32.7734L41.849 26.1068C42.4613 25.7115 42.9272 25.1265 43.1754 24.4413C43.4236 23.7561 43.4404 23.0084 43.2233 22.3127C43.0062 21.6171 42.5671 21.0117 41.9732 20.5893C41.3793 20.1669 40.6633 19.9508 39.9349 19.974Z" fill="current"/>
</svg>
